<svg preserveAspectRatio="none" width="100%" height="100%" overflow="visible" style="display: block;" viewBox="0 0 442.719 206.255" fill="none" xmlns="http://www.w3.org/2000/svg">
<g id="Group 626536">
<g id="Vector">
<path d="M196.762 46.0817C197.41 47.7948 199.829 47.8078 200.495 46.1017L211.025 19.1482C211.325 18.381 212.064 17.876 212.888 17.876H218.581C219.991 17.876 220.958 19.2955 220.442 20.6076L198.259 77.0473C197.896 77.9704 196.912 78.4881 195.945 78.2639L190.779 77.0644C189.591 76.7888 188.924 75.524 189.368 74.3885L194.177 62.0782C194.39 61.5313 193.987 60.9408 193.4 60.9408C193.058 60.9408 192.751 60.732 192.625 60.4141L176.854 20.6127C176.334 19.2999 177.301 17.876 178.714 17.876H184.708C185.539 17.876 186.284 18.3905 186.578 19.1682L196.762 46.0817Z" fill="var(--fill-0, black)"/>
<path d="M159.142 62.1597C145.979 62.1597 136.959 52.7341 136.959 39.5709C136.959 25.3514 146.304 16.5759 158.329 16.5759C170.518 16.5759 178.643 25.1076 178.887 39.0834V39.3585C178.887 40.4631 177.991 41.3585 176.887 41.3585H148.727C147.555 41.3585 146.622 42.367 146.856 43.5156C148.15 49.8729 152.63 54.0342 159.223 54.0342C163.647 54.0342 167.1 52.0924 168.831 48.6132C169.212 47.8462 169.956 47.2901 170.813 47.2901H176.195C177.486 47.2901 178.443 48.4997 178.006 49.7144C175.197 57.5222 168.379 62.1597 159.142 62.1597ZM147.713 32.2032C147.232 33.4011 148.192 34.6144 149.483 34.6144H166.54C167.8 34.6144 168.757 33.4554 168.345 32.2646C166.698 27.5038 163.184 24.7014 158.329 24.7014C153.426 24.7014 149.609 27.4797 147.713 32.2032Z" fill="var(--fill-0, black)"/>
<path d="M110.801 62.1597C99.1819 62.1597 90.8126 52.7341 90.8126 39.1646C90.8126 25.8389 99.0193 16.5759 110.476 16.5759C114.156 16.5759 117.45 17.4941 120.145 19.116C121.797 20.1105 124.614 19.0211 124.614 17.0926V2C124.614 0.895429 125.51 0 126.614 0H132.203C133.307 0 134.203 0.89543 134.203 2V58.9408C134.203 60.0454 133.307 60.9408 132.203 60.9408H127.997C127.134 60.9408 126.408 60.2946 126.307 59.4375C126.107 57.7214 123.264 57.1056 121.97 58.2498C119.161 60.7318 115.321 62.1597 110.801 62.1597ZM112.589 54.0342C119.658 54.0342 124.614 47.8589 124.614 39.0834C124.614 30.5517 119.739 24.6201 112.751 24.6201C105.601 24.6201 100.644 30.6329 100.644 39.2459C100.644 47.9401 105.52 54.0342 112.589 54.0342Z" fill="var(--fill-0, black)"/>
<path d="M76.5062 59.7106C76.1956 60.4556 75.4675 60.9408 74.6603 60.9408H67.3319C66.5247 60.9408 65.7966 60.4556 65.4859 59.7106L49.1966 20.6457C48.6473 19.3283 49.6152 17.876 51.0426 17.876H57.0837C57.9037 17.876 58.6407 18.3766 58.9429 19.1389L69.1714 44.9412C69.8398 46.6272 72.2269 46.6245 72.8916 44.9371L83.0508 19.1431C83.3519 18.3785 84.09 17.876 84.9117 17.876H90.9496C92.377 17.876 93.3449 19.3283 92.7955 20.6457L76.5062 59.7106Z" fill="var(--fill-0, black)"/>
<path d="M10.5847 59.7002C10.2767 60.4507 9.54578 60.9408 8.73448 60.9408H2.97763C1.5564 60.9408 0.588665 59.5001 1.1262 58.1844L22.7307 5.30628C23.038 4.5542 23.7697 4.06272 24.5821 4.06272H31.6477C32.4593 4.06272 33.1904 4.55313 33.4982 5.30402L55.1783 58.1821C55.7178 59.4981 54.75 60.9408 53.3278 60.9408H47.5749C46.7636 60.9408 46.0326 60.4507 45.7246 59.7002L40.9739 48.1245C40.6659 47.3739 39.9349 46.8838 39.1236 46.8838H17.1857C16.3744 46.8838 15.6435 47.3739 15.3354 48.1245L10.5847 59.7002ZM30.0398 21.2002C29.3656 19.5396 27.0157 19.5358 26.3361 21.1943L20.4689 35.5125C19.9296 36.8284 20.8974 38.2708 22.3195 38.2708H34.0002C35.4195 38.2708 36.3872 36.8336 35.8533 35.5185L30.0398 21.2002Z" fill="var(--fill-0, black)"/>
<path d="M337.844 206.255C323.868 206.255 315.743 196.423 315.743 183.097C315.743 169.04 325.249 160.671 337.844 160.671C351.738 160.671 359.864 170.421 359.864 183.097C359.864 197.642 350.682 206.255 337.844 206.255ZM337.844 198.048C345.563 198.048 350.113 191.71 350.113 183.097C350.113 174.565 345.319 168.878 337.844 168.878C330.369 168.878 325.493 174.565 325.493 183.097C325.493 192.523 330.775 198.048 337.844 198.048Z" fill="var(--fill-0, black)"/>
<path d="M295.92 206.255C291.412 206.255 287.401 204.766 284.423 202.186C283.069 201.013 280.226 201.667 280.018 203.447C279.912 204.353 279.144 205.036 278.232 205.036H274.113C273.008 205.036 272.113 204.14 272.113 203.036V146.095C272.113 144.99 273.008 144.095 274.113 144.095H279.701C280.805 144.095 281.701 144.99 281.701 146.095V161.451C281.701 163.386 284.519 164.457 286.153 163.421C288.91 161.675 292.273 160.671 296.002 160.671C307.377 160.671 315.421 169.934 315.421 183.26C315.421 196.829 307.377 206.255 295.92 206.255ZM293.808 198.129C300.796 198.129 305.59 192.035 305.59 183.26C305.59 174.728 300.796 168.796 293.808 168.796C286.739 168.796 281.701 174.647 281.701 183.016C281.701 191.873 286.739 198.129 293.808 198.129Z" fill="var(--fill-0, black)"/>
<path d="M211.666 203.036C211.666 204.14 210.77 205.036 209.666 205.036H204.078C202.973 205.036 202.078 204.14 202.078 203.036V163.971C202.078 162.866 202.973 161.971 204.078 161.971H208.341C209.172 161.971 209.873 162.591 209.973 163.417C210.159 164.95 212.384 165.545 213.576 164.564C216.456 162.194 220.403 160.671 224.91 160.671C229.528 160.671 233.328 162.397 235.903 165.341C236.991 166.585 239.311 166.674 240.483 165.508C243.386 162.623 247.761 160.671 252.862 160.671C261.881 160.671 267.65 167.09 267.65 176.353V203.036C267.65 204.14 266.755 205.036 265.65 205.036H259.981C258.876 205.036 257.981 204.14 257.981 203.036V176.841C257.981 172.047 255.056 168.959 250.424 168.959C243.843 168.959 239.699 173.265 239.617 178.953V203.036C239.617 204.14 238.722 205.036 237.617 205.036H232.029C230.925 205.036 230.029 204.14 230.029 203.036V176.841C230.029 172.047 227.104 168.959 222.473 168.959C215.891 168.959 211.747 173.265 211.666 178.953V203.036Z" fill="var(--fill-0, black)"/>
<path d="M179.727 206.255C166.563 206.255 157.544 196.829 157.544 183.666C157.544 169.446 166.888 160.671 178.914 160.671C191.102 160.671 199.228 169.203 199.471 183.178V183.454C199.471 184.558 198.576 185.454 197.471 185.454H169.312C168.139 185.454 167.207 186.462 167.441 187.611C168.735 193.968 173.214 198.129 179.808 198.129C184.232 198.129 187.685 196.187 189.416 192.708C189.797 191.941 190.541 191.385 191.398 191.385H196.78C198.071 191.385 199.028 192.595 198.591 193.809C195.782 201.617 188.964 206.255 179.727 206.255ZM168.297 176.298C167.816 177.496 168.776 178.709 170.067 178.709H187.125C188.385 178.709 189.342 177.55 188.93 176.36C187.283 171.599 183.769 168.796 178.914 168.796C174.01 168.796 170.194 171.575 168.297 176.298Z" fill="var(--fill-0, black)"/>
<path d="M146.583 203.036C146.583 204.14 145.688 205.036 144.583 205.036H138.832C137.728 205.036 136.832 204.14 136.832 203.036V158.933C136.832 157.829 135.937 156.933 134.832 156.933H119.819C118.714 156.933 117.819 156.038 117.819 154.933V150.158C117.819 149.053 118.714 148.158 119.819 148.158H163.515C164.62 148.158 165.515 149.053 165.515 150.158V154.933C165.515 156.038 164.62 156.933 163.515 156.933H148.583C147.478 156.933 146.583 157.829 146.583 158.933V203.036Z" fill="var(--fill-0, black)"/>
<path d="M414.036 122.934C414.036 124.038 413.14 124.934 412.036 124.934H406.448C405.343 124.934 404.448 124.038 404.448 122.934V83.869C404.448 82.7645 405.343 81.869 406.448 81.869H410.672C411.527 81.869 412.248 82.5039 412.357 83.3515C412.562 84.9497 414.928 85.5526 416.167 84.5221C419.085 82.0948 423.07 80.569 427.524 80.569C436.706 80.569 442.719 86.7443 442.719 96.4136V122.934C442.719 124.038 441.823 124.934 440.719 124.934H435.131C434.026 124.934 433.131 124.038 433.131 122.934V96.9011C433.131 92.1071 429.962 88.9382 424.599 88.9382C418.342 88.9382 414.117 93.2447 414.036 98.8512V122.934Z" fill="var(--fill-0, black)"/>
<path d="M380.114 142.485C368.251 142.404 360.613 137.772 360.613 130.622C360.613 127.704 361.821 125.31 364.04 123.609C365.313 122.634 365.632 120.463 364.879 119.046C364.323 118 364.026 116.834 364.026 115.59C364.026 113.498 364.84 111.457 366.34 109.952C367.649 108.638 368.278 105.466 367.184 103.969C365.302 101.396 364.351 98.2955 364.351 95.1948C364.351 87.2318 370.526 80.569 380.358 80.569C382.754 80.569 385.077 80.9367 387.327 81.7422C387.555 81.8239 387.795 81.869 388.037 81.869H401.922C403.026 81.869 403.922 82.7644 403.922 83.869V87.0194C403.922 88.124 403.026 89.0194 401.922 89.0194H398.601C396.92 89.0194 395.883 91.073 396.444 92.6581C396.916 93.9925 397.177 95.4473 397.177 96.9824C397.177 104.783 390.677 110.227 381.17 110.227C379.834 110.227 378.566 110.091 377.366 109.882C377.141 109.843 376.91 109.837 376.685 109.879C373.802 110.412 372.07 111.762 372.07 113.64C372.07 115.346 373.532 116.483 375.645 116.483H387.914C396.69 116.483 402.053 120.79 402.053 127.859C402.053 136.96 393.033 142.485 380.114 142.485ZM381.089 102.995C385.964 102.995 389.296 99.9075 389.296 95.3573C389.296 90.807 385.964 87.6381 381.089 87.6381C376.295 87.6381 372.882 90.807 372.882 95.3573C372.882 99.9075 376.295 102.995 381.089 102.995ZM380.845 135.009C388.727 135.091 393.521 132.409 393.521 128.347C393.521 125.665 391.327 124.04 387.752 124.04H374.507C371.095 124.04 368.901 125.909 368.901 128.672C368.901 132.491 373.532 134.928 380.845 135.009Z" fill="var(--fill-0, black)"/>
<path d="M353.846 76.1C350.352 76.1 347.671 73.3373 347.671 69.8434C347.671 66.3494 350.352 63.668 353.846 63.668C357.421 63.668 360.021 66.3494 360.021 69.8434C360.021 73.3373 357.421 76.1 353.846 76.1ZM358.64 122.934C358.64 124.038 357.744 124.934 356.64 124.934H351.052C349.947 124.934 349.052 124.038 349.052 122.934V83.869C349.052 82.7645 349.947 81.869 351.052 81.869H356.64C357.744 81.869 358.64 82.7644 358.64 83.869V122.934Z" fill="var(--fill-0, black)"/>
<path d="M330.445 126.153C319.572 126.153 312.782 121.447 311.352 113.313C311.152 112.179 312.078 111.202 313.23 111.202H318.505C319.555 111.202 320.392 112.031 320.718 113.03C321.843 116.472 325.42 118.271 329.957 118.271C334.832 118.271 337.433 116.402 337.433 113.071C337.433 109.739 334.67 109.089 330.932 107.87L325.244 106.002C318.094 103.645 311.919 101.208 311.919 93.2446C311.919 85.6067 317.769 80.569 328.088 80.569C337.297 80.569 343.815 85.0524 345.673 93.3837C345.933 94.5514 344.995 95.601 343.799 95.601H338.755C337.727 95.601 336.896 94.8104 336.604 93.8253C335.521 90.1709 332.317 88.4506 328.007 88.4506C323.782 88.4506 321.344 90.2382 321.344 93.1634C321.344 96.4948 325.082 97.3886 328.17 98.4449L333.37 100.151C341.902 102.995 347.021 105.595 347.021 113.315C347.021 121.277 341.008 126.153 330.445 126.153Z" fill="var(--fill-0, black)"/>
<path d="M290.949 126.153C277.785 126.153 268.766 116.727 268.766 103.564C268.766 89.3444 278.11 80.569 290.136 80.569C302.324 80.569 310.45 89.1007 310.693 103.076V103.352C310.693 104.456 309.798 105.352 308.693 105.352H280.534C279.361 105.352 278.429 106.36 278.663 107.509C279.957 113.866 284.437 118.027 291.03 118.027C295.454 118.027 298.907 116.085 300.638 112.606C301.019 111.839 301.763 111.283 302.62 111.283H308.002C309.293 111.283 310.25 112.493 309.813 113.707C307.004 121.515 300.186 126.153 290.949 126.153ZM279.519 96.1962C279.038 97.3942 279.999 98.6074 281.289 98.6074H298.347C299.607 98.6074 300.564 97.4484 300.152 96.2576C298.505 91.4968 294.991 88.6944 290.136 88.6944C285.232 88.6944 281.416 91.4727 279.519 96.1962Z" fill="var(--fill-0, black)"/>
<path d="M239.047 124.934H220.571C219.467 124.934 218.571 124.038 218.571 122.934V70.0558C218.571 68.9512 219.467 68.0558 220.571 68.0558H239.047C255.948 68.0558 267.73 79.5939 267.73 96.1698C267.73 113.152 255.948 124.934 239.047 124.934ZM230.322 76.8313C229.217 76.8313 228.322 77.7267 228.322 78.8313V114.158C228.322 115.263 229.217 116.158 230.322 116.158H239.697C250.26 116.158 257.655 107.952 257.655 96.1698C257.655 85.0379 250.26 76.8313 239.697 76.8313H230.322Z" fill="var(--fill-0, black)"/>
<path d="M102.056 145.53C102.056 146.634 101.16 147.53 100.056 147.53H95.2801C94.1755 147.53 93.2801 146.634 93.2801 145.53V134.254C93.2801 133.149 92.3846 132.254 91.2801 132.254H79.4355C78.3309 132.254 77.4355 131.358 77.4355 130.254V126.372C77.4355 125.268 78.3309 124.372 79.4355 124.372H91.2801C92.3846 124.372 93.2801 123.477 93.2801 122.372V110.934C93.2801 109.829 94.1755 108.934 95.2801 108.934H100.056C101.16 108.934 102.056 109.829 102.056 110.934V122.372C102.056 123.477 102.951 124.372 104.056 124.372H115.819C116.923 124.372 117.819 125.268 117.819 126.372V130.254C117.819 131.358 116.923 132.254 115.819 132.254H104.056C102.951 132.254 102.056 133.149 102.056 134.254V145.53Z" fill="var(--fill-0, black)"/>
</g>
</g>
</svg>
