<svg width="3468" height="296" viewBox="0 0 3468 296" fill="none" xmlns="http://www.w3.org/2000/svg">
<path d="M3274.23 0H3275.14C3278.16 0 3280.73 1.20925 3282.85 3.62779C3285.27 5.74402 3286.48 8.31372 3286.48 11.3369V12.2438C3286.48 15.267 3285.27 17.9878 3282.85 20.4064C3280.73 22.5226 3278.16 23.5807 3275.14 23.5807H3274.23C3271.21 23.5807 3268.49 22.5226 3266.07 20.4064C3263.95 17.9878 3262.89 15.267 3262.89 12.2438V11.3369C3262.89 8.31372 3263.95 5.74402 3266.07 3.62779C3268.49 1.20925 3271.21 0 3274.23 0ZM3455.62 0H3456.53C3459.55 0 3462.12 1.20925 3464.24 3.62779C3466.66 5.74402 3467.87 8.31372 3467.87 11.3369V12.2438C3467.87 15.267 3466.66 17.9878 3464.24 20.4064C3462.12 22.5226 3459.55 23.5807 3456.53 23.5807H3455.62C3452.6 23.5807 3449.88 22.5226 3447.46 20.4064C3445.34 17.9878 3444.28 15.267 3444.28 12.2438V11.3369C3444.28 8.31372 3445.34 5.74402 3447.46 3.62779C3449.88 1.20925 3452.6 0 3455.62 0ZM3274.23 45.3475H3275.14C3278.16 45.3475 3280.73 46.5568 3282.85 48.9753C3285.27 51.0915 3286.48 53.6612 3286.48 56.6844V57.5913C3286.48 60.6145 3285.27 63.3353 3282.85 65.7539C3280.73 67.8701 3278.16 68.9282 3275.14 68.9282H3274.23C3271.21 68.9282 3268.49 67.8701 3266.07 65.7539C3263.95 63.3353 3262.89 60.6145 3262.89 57.5913V56.6844C3262.89 53.6612 3263.95 51.0915 3266.07 48.9753C3268.49 46.5568 3271.21 45.3475 3274.23 45.3475ZM3410.27 45.3475H3411.18C3414.2 45.3475 3416.77 46.5568 3418.89 48.9753C3421.31 51.0915 3422.52 53.6612 3422.52 56.6844V57.5913C3422.52 60.6145 3421.31 63.3353 3418.89 65.7539C3416.77 67.8701 3414.2 68.9282 3411.18 68.9282H3410.27C3407.25 68.9282 3404.53 67.8701 3402.11 65.7539C3400 63.3353 3398.94 60.6145 3398.94 57.5913V56.6844C3398.94 53.6612 3400 51.0915 3402.11 48.9753C3404.53 46.5568 3407.25 45.3475 3410.27 45.3475ZM3274.23 90.695H3275.14C3278.16 90.695 3280.73 91.9043 3282.85 94.3228C3285.27 96.439 3286.48 99.0087 3286.48 102.032V102.939C3286.48 105.962 3285.27 108.683 3282.85 111.101C3280.73 113.218 3278.16 114.276 3275.14 114.276H3274.23C3271.21 114.276 3268.49 113.218 3266.07 111.101C3263.95 108.683 3262.89 105.962 3262.89 102.939V102.032C3262.89 99.0087 3263.95 96.439 3266.07 94.3228C3268.49 91.9043 3271.21 90.695 3274.23 90.695ZM3364.93 90.695H3365.83C3368.86 90.695 3371.43 91.9043 3373.54 94.3228C3375.96 96.439 3377.17 99.0087 3377.17 102.032V102.939C3377.17 105.962 3375.96 108.683 3373.54 111.101C3371.43 113.218 3368.86 114.276 3365.83 114.276H3364.93C3361.9 114.276 3359.18 113.218 3356.76 111.101C3354.65 108.683 3353.59 105.962 3353.59 102.939V102.032C3353.59 99.0087 3354.65 96.439 3356.76 94.3228C3359.18 91.9043 3361.9 90.695 3364.93 90.695ZM3274.23 136.043H3275.14C3278.16 136.043 3280.73 137.252 3282.85 139.67C3285.27 141.787 3286.48 144.356 3286.48 147.379V148.286C3286.48 151.31 3285.27 154.03 3282.85 156.449C3280.73 158.565 3278.16 159.623 3275.14 159.623H3274.23C3271.21 159.623 3268.49 158.565 3266.07 156.449C3263.95 154.03 3262.89 151.31 3262.89 148.286V147.379C3262.89 144.356 3263.95 141.787 3266.07 139.67C3268.49 137.252 3271.21 136.043 3274.23 136.043ZM3319.58 136.043H3320.49C3323.51 136.043 3326.08 137.252 3328.2 139.67C3330.61 141.787 3331.82 144.356 3331.82 147.379V148.286C3331.82 151.31 3330.61 154.03 3328.2 156.449C3326.08 158.565 3323.51 159.623 3320.49 159.623H3319.58C3316.56 159.623 3313.84 158.565 3311.42 156.449C3309.3 154.03 3308.24 151.31 3308.24 148.286V147.379C3308.24 144.356 3309.3 141.787 3311.42 139.67C3313.84 137.252 3316.56 136.043 3319.58 136.043ZM3274.23 181.39H3275.14C3278.16 181.39 3280.73 182.599 3282.85 185.018C3285.27 187.134 3286.48 189.704 3286.48 192.727V193.634C3286.48 196.657 3285.27 199.378 3282.85 201.796C3280.73 203.913 3278.16 204.971 3275.14 204.971H3274.23C3271.21 204.971 3268.49 203.913 3266.07 201.796C3263.95 199.378 3262.89 196.657 3262.89 193.634V192.727C3262.89 189.704 3263.95 187.134 3266.07 185.018C3268.49 182.599 3271.21 181.39 3274.23 181.39ZM3364.93 181.39H3365.83C3368.86 181.39 3371.43 182.599 3373.54 185.018C3375.96 187.134 3377.17 189.704 3377.17 192.727V193.634C3377.17 196.657 3375.96 199.378 3373.54 201.796C3371.43 203.913 3368.86 204.971 3365.83 204.971H3364.93C3361.9 204.971 3359.18 203.913 3356.76 201.796C3354.65 199.378 3353.59 196.657 3353.59 193.634V192.727C3353.59 189.704 3354.65 187.134 3356.76 185.018C3359.18 182.599 3361.9 181.39 3364.93 181.39ZM3274.23 226.737H3275.14C3278.16 226.737 3280.73 227.947 3282.85 230.365C3285.27 232.482 3286.48 235.051 3286.48 238.074V238.981C3286.48 242.004 3285.27 244.725 3282.85 247.144C3280.73 249.26 3278.16 250.318 3275.14 250.318H3274.23C3271.21 250.318 3268.49 249.26 3266.07 247.144C3263.95 244.725 3262.89 242.004 3262.89 238.981V238.074C3262.89 235.051 3263.95 232.482 3266.07 230.365C3268.49 227.947 3271.21 226.737 3274.23 226.737ZM3410.27 226.737H3411.18C3414.2 226.737 3416.77 227.947 3418.89 230.365C3421.31 232.482 3422.52 235.051 3422.52 238.074V238.981C3422.52 242.004 3421.31 244.725 3418.89 247.144C3416.77 249.26 3414.2 250.318 3411.18 250.318H3410.27C3407.25 250.318 3404.53 249.26 3402.11 247.144C3400 244.725 3398.94 242.004 3398.94 238.981V238.074C3398.94 235.051 3400 232.482 3402.11 230.365C3404.53 227.947 3407.25 226.737 3410.27 226.737ZM3274.23 272.085H3275.14C3278.16 272.085 3280.73 273.294 3282.85 275.713C3285.27 277.829 3286.48 280.399 3286.48 283.422V284.329C3286.48 287.352 3285.27 290.073 3282.85 292.491C3280.73 294.608 3278.16 295.666 3275.14 295.666H3274.23C3271.21 295.666 3268.49 294.608 3266.07 292.491C3263.95 290.073 3262.89 287.352 3262.89 284.329V283.422C3262.89 280.399 3263.95 277.829 3266.07 275.713C3268.49 273.294 3271.21 272.085 3274.23 272.085ZM3455.62 272.085H3456.53C3459.55 272.085 3462.12 273.294 3464.24 275.713C3466.66 277.829 3467.87 280.399 3467.87 283.422V284.329C3467.87 287.352 3466.66 290.073 3464.24 292.491C3462.12 294.608 3459.55 295.666 3456.53 295.666H3455.62C3452.6 295.666 3449.88 294.608 3447.46 292.491C3445.34 290.073 3444.28 287.352 3444.28 284.329V283.422C3444.28 280.399 3445.34 277.829 3447.46 275.713C3449.88 273.294 3452.6 272.085 3455.62 272.085Z" fill="#1A1A1A"/>
<path d="M3002.33 0H3003.23C3006.26 0 3008.82 1.20925 3010.94 3.62779C3013.36 5.74402 3014.57 8.31372 3014.57 11.3369V12.2438C3014.57 15.267 3013.36 17.9878 3010.94 20.4064C3008.82 22.5226 3006.26 23.5807 3003.23 23.5807H3002.33C2999.3 23.5807 2996.58 22.5226 2994.16 20.4064C2992.05 17.9878 2990.99 15.267 2990.99 12.2438V11.3369C2990.99 8.31372 2992.05 5.74402 2994.16 3.62779C2996.58 1.20925 2999.3 0 3002.33 0ZM3047.67 0H3048.58C3051.6 0 3054.17 1.20925 3056.29 3.62779C3058.71 5.74402 3059.92 8.31372 3059.92 11.3369V12.2438C3059.92 15.267 3058.71 17.9878 3056.29 20.4064C3054.17 22.5226 3051.6 23.5807 3048.58 23.5807H3047.67C3044.65 23.5807 3041.93 22.5226 3039.51 20.4064C3037.39 17.9878 3036.34 15.267 3036.34 12.2438V11.3369C3036.34 8.31372 3037.39 5.74402 3039.51 3.62779C3041.93 1.20925 3044.65 0 3047.67 0ZM3093.02 0H3093.93C3096.95 0 3099.52 1.20925 3101.64 3.62779C3104.05 5.74402 3105.26 8.31372 3105.26 11.3369V12.2438C3105.26 15.267 3104.05 17.9878 3101.64 20.4064C3099.52 22.5226 3096.95 23.5807 3093.93 23.5807H3093.02C3090 23.5807 3087.28 22.5226 3084.86 20.4064C3082.74 17.9878 3081.68 15.267 3081.68 12.2438V11.3369C3081.68 8.31372 3082.74 5.74402 3084.86 3.62779C3087.28 1.20925 3090 0 3093.02 0ZM3138.37 0H3139.27C3142.3 0 3144.87 1.20925 3146.98 3.62779C3149.4 5.74402 3150.61 8.31372 3150.61 11.3369V12.2438C3150.61 15.267 3149.4 17.9878 3146.98 20.4064C3144.87 22.5226 3142.3 23.5807 3139.27 23.5807H3138.37C3135.34 23.5807 3132.62 22.5226 3130.21 20.4064C3128.09 17.9878 3127.03 15.267 3127.03 12.2438V11.3369C3127.03 8.31372 3128.09 5.74402 3130.21 3.62779C3132.62 1.20925 3135.34 0 3138.37 0ZM3002.33 45.3475H3003.23C3006.26 45.3475 3008.82 46.5568 3010.94 48.9753C3013.36 51.0915 3014.57 53.6612 3014.57 56.6844V57.5913C3014.57 60.6145 3013.36 63.3353 3010.94 65.7539C3008.82 67.8701 3006.26 68.9282 3003.23 68.9282H3002.33C2999.3 68.9282 2996.58 67.8701 2994.16 65.7539C2992.05 63.3353 2990.99 60.6145 2990.99 57.5913V56.6844C2990.99 53.6612 2992.05 51.0915 2994.16 48.9753C2996.58 46.5568 2999.3 45.3475 3002.33 45.3475ZM3183.72 45.3475H3184.62C3187.65 45.3475 3190.22 46.5568 3192.33 48.9753C3194.75 51.0915 3195.96 53.6612 3195.96 56.6844V57.5913C3195.96 60.6145 3194.75 63.3353 3192.33 65.7539C3190.22 67.8701 3187.65 68.9282 3184.62 68.9282H3183.72C3180.69 68.9282 3177.97 67.8701 3175.55 65.7539C3173.44 63.3353 3172.38 60.6145 3172.38 57.5913V56.6844C3172.38 53.6612 3173.44 51.0915 3175.55 48.9753C3177.97 46.5568 3180.69 45.3475 3183.72 45.3475ZM3002.33 90.695H3003.23C3006.26 90.695 3008.82 91.9043 3010.94 94.3228C3013.36 96.439 3014.57 99.0087 3014.57 102.032V102.939C3014.57 105.962 3013.36 108.683 3010.94 111.101C3008.82 113.218 3006.26 114.276 3003.23 114.276H3002.33C2999.3 114.276 2996.58 113.218 2994.16 111.101C2992.05 108.683 2990.99 105.962 2990.99 102.939V102.032C2990.99 99.0087 2992.05 96.439 2994.16 94.3228C2996.58 91.9043 2999.3 90.695 3002.33 90.695ZM3183.72 90.695H3184.62C3187.65 90.695 3190.22 91.9043 3192.33 94.3228C3194.75 96.439 3195.96 99.0087 3195.96 102.032V102.939C3195.96 105.962 3194.75 108.683 3192.33 111.101C3190.22 113.218 3187.65 114.276 3184.62 114.276H3183.72C3180.69 114.276 3177.97 113.218 3175.55 111.101C3173.44 108.683 3172.38 105.962 3172.38 102.939V102.032C3172.38 99.0087 3173.44 96.439 3175.55 94.3228C3177.97 91.9043 3180.69 90.695 3183.72 90.695ZM3002.33 136.043H3003.23C3006.26 136.043 3008.82 137.252 3010.94 139.67C3013.36 141.787 3014.57 144.356 3014.57 147.379V148.286C3014.57 151.31 3013.36 154.03 3010.94 156.449C3008.82 158.565 3006.26 159.623 3003.23 159.623H3002.33C2999.3 159.623 2996.58 158.565 2994.16 156.449C2992.05 154.03 2990.99 151.31 2990.99 148.286V147.379C2990.99 144.356 2992.05 141.787 2994.16 139.67C2996.58 137.252 2999.3 136.043 3002.33 136.043ZM3047.67 136.043H3048.58C3051.6 136.043 3054.17 137.252 3056.29 139.67C3058.71 141.787 3059.92 144.356 3059.92 147.379V148.286C3059.92 151.31 3058.71 154.03 3056.29 156.449C3054.17 158.565 3051.6 159.623 3048.58 159.623H3047.67C3044.65 159.623 3041.93 158.565 3039.51 156.449C3037.39 154.03 3036.34 151.31 3036.34 148.286V147.379C3036.34 144.356 3037.39 141.787 3039.51 139.67C3041.93 137.252 3044.65 136.043 3047.67 136.043ZM3093.02 136.043H3093.93C3096.95 136.043 3099.52 137.252 3101.64 139.67C3104.05 141.787 3105.26 144.356 3105.26 147.379V148.286C3105.26 151.31 3104.05 154.03 3101.64 156.449C3099.52 158.565 3096.95 159.623 3093.93 159.623H3093.02C3090 159.623 3087.28 158.565 3084.86 156.449C3082.74 154.03 3081.68 151.31 3081.68 148.286V147.379C3081.68 144.356 3082.74 141.787 3084.86 139.67C3087.28 137.252 3090 136.043 3093.02 136.043ZM3138.37 136.043H3139.27C3142.3 136.043 3144.87 137.252 3146.98 139.67C3149.4 141.787 3150.61 144.356 3150.61 147.379V148.286C3150.61 151.31 3149.4 154.03 3146.98 156.449C3144.87 158.565 3142.3 159.623 3139.27 159.623H3138.37C3135.34 159.623 3132.62 158.565 3130.21 156.449C3128.09 154.03 3127.03 151.31 3127.03 148.286V147.379C3127.03 144.356 3128.09 141.787 3130.21 139.67C3132.62 137.252 3135.34 136.043 3138.37 136.043ZM3002.33 181.39H3003.23C3006.26 181.39 3008.82 182.599 3010.94 185.018C3013.36 187.134 3014.57 189.704 3014.57 192.727V193.634C3014.57 196.657 3013.36 199.378 3010.94 201.796C3008.82 203.913 3006.26 204.971 3003.23 204.971H3002.33C2999.3 204.971 2996.58 203.913 2994.16 201.796C2992.05 199.378 2990.99 196.657 2990.99 193.634V192.727C2990.99 189.704 2992.05 187.134 2994.16 185.018C2996.58 182.599 2999.3 181.39 3002.33 181.39ZM3093.02 181.39H3093.93C3096.95 181.39 3099.52 182.599 3101.64 185.018C3104.05 187.134 3105.26 189.704 3105.26 192.727V193.634C3105.26 196.657 3104.05 199.378 3101.64 201.796C3099.52 203.913 3096.95 204.971 3093.93 204.971H3093.02C3090 204.971 3087.28 203.913 3084.86 201.796C3082.74 199.378 3081.68 196.657 3081.68 193.634V192.727C3081.68 189.704 3082.74 187.134 3084.86 185.018C3087.28 182.599 3090 181.39 3093.02 181.39ZM3002.33 226.737H3003.23C3006.26 226.737 3008.82 227.947 3010.94 230.365C3013.36 232.482 3014.57 235.051 3014.57 238.074V238.981C3014.57 242.004 3013.36 244.725 3010.94 247.144C3008.82 249.26 3006.26 250.318 3003.23 250.318H3002.33C2999.3 250.318 2996.58 249.26 2994.16 247.144C2992.05 244.725 2990.99 242.004 2990.99 238.981V238.074C2990.99 235.051 2992.05 232.482 2994.16 230.365C2996.58 227.947 2999.3 226.737 3002.33 226.737ZM3138.37 226.737H3139.27C3142.3 226.737 3144.87 227.947 3146.98 230.365C3149.4 232.482 3150.61 235.051 3150.61 238.074V238.981C3150.61 242.004 3149.4 244.725 3146.98 247.144C3144.87 249.26 3142.3 250.318 3139.27 250.318H3138.37C3135.34 250.318 3132.62 249.26 3130.21 247.144C3128.09 244.725 3127.03 242.004 3127.03 238.981V238.074C3127.03 235.051 3128.09 232.482 3130.21 230.365C3132.62 227.947 3135.34 226.737 3138.37 226.737ZM3002.33 272.085H3003.23C3006.26 272.085 3008.82 273.294 3010.94 275.713C3013.36 277.829 3014.57 280.399 3014.57 283.422V284.329C3014.57 287.352 3013.36 290.073 3010.94 292.491C3008.82 294.608 3006.26 295.666 3003.23 295.666H3002.33C2999.3 295.666 2996.58 294.608 2994.16 292.491C2992.05 290.073 2990.99 287.352 2990.99 284.329V283.422C2990.99 280.399 2992.05 277.829 2994.16 275.713C2996.58 273.294 2999.3 272.085 3002.33 272.085ZM3183.72 272.085H3184.62C3187.65 272.085 3190.22 273.294 3192.33 275.713C3194.75 277.829 3195.96 280.399 3195.96 283.422V284.329C3195.96 287.352 3194.75 290.073 3192.33 292.491C3190.22 294.608 3187.65 295.666 3184.62 295.666H3183.72C3180.69 295.666 3177.97 294.608 3175.55 292.491C3173.44 290.073 3172.38 287.352 3172.38 284.329V283.422C3172.38 280.399 3173.44 277.829 3175.55 275.713C3177.97 273.294 3180.69 272.085 3183.72 272.085Z" fill="#1A1A1A"/>
<path d="M2775.76 0H2776.67C2779.69 0 2782.26 1.20925 2784.38 3.62779C2786.8 5.74402 2788.01 8.31372 2788.01 11.3369V12.2438C2788.01 15.267 2786.8 17.9878 2784.38 20.4064C2782.26 22.5226 2779.69 23.5807 2776.67 23.5807H2775.76C2772.74 23.5807 2770.02 22.5226 2767.6 20.4064C2765.48 17.9878 2764.43 15.267 2764.43 12.2438V11.3369C2764.43 8.31372 2765.48 5.74402 2767.6 3.62779C2770.02 1.20925 2772.74 0 2775.76 0ZM2821.11 0H2822.02C2825.04 0 2827.61 1.20925 2829.73 3.62779C2832.14 5.74402 2833.35 8.31372 2833.35 11.3369V12.2438C2833.35 15.267 2832.14 17.9878 2829.73 20.4064C2827.61 22.5226 2825.04 23.5807 2822.02 23.5807H2821.11C2818.09 23.5807 2815.37 22.5226 2812.95 20.4064C2810.83 17.9878 2809.77 15.267 2809.77 12.2438V11.3369C2809.77 8.31372 2810.83 5.74402 2812.95 3.62779C2815.37 1.20925 2818.09 0 2821.11 0ZM2866.46 0H2867.36C2870.39 0 2872.96 1.20925 2875.07 3.62779C2877.49 5.74402 2878.7 8.31372 2878.7 11.3369V12.2438C2878.7 15.267 2877.49 17.9878 2875.07 20.4064C2872.96 22.5226 2870.39 23.5807 2867.36 23.5807H2866.46C2863.43 23.5807 2860.71 22.5226 2858.3 20.4064C2856.18 17.9878 2855.12 15.267 2855.12 12.2438V11.3369C2855.12 8.31372 2856.18 5.74402 2858.3 3.62779C2860.71 1.20925 2863.43 0 2866.46 0ZM2730.42 45.3475H2731.32C2734.35 45.3475 2736.91 46.5568 2739.03 48.9753C2741.45 51.0915 2742.66 53.6612 2742.66 56.6844V57.5913C2742.66 60.6145 2741.45 63.3353 2739.03 65.7539C2736.91 67.8701 2734.35 68.9282 2731.32 68.9282H2730.42C2727.39 68.9282 2724.67 67.8701 2722.25 65.7539C2720.14 63.3353 2719.08 60.6145 2719.08 57.5913V56.6844C2719.08 53.6612 2720.14 51.0915 2722.25 48.9753C2724.67 46.5568 2727.39 45.3475 2730.42 45.3475ZM2911.81 45.3475H2912.71C2915.74 45.3475 2918.3 46.5568 2920.42 48.9753C2922.84 51.0915 2924.05 53.6612 2924.05 56.6844V57.5913C2924.05 60.6145 2922.84 63.3353 2920.42 65.7539C2918.3 67.8701 2915.74 68.9282 2912.71 68.9282H2911.81C2908.78 68.9282 2906.06 67.8701 2903.64 65.7539C2901.53 63.3353 2900.47 60.6145 2900.47 57.5913V56.6844C2900.47 53.6612 2901.53 51.0915 2903.64 48.9753C2906.06 46.5568 2908.78 45.3475 2911.81 45.3475ZM2730.42 90.695H2731.32C2734.35 90.695 2736.91 91.9043 2739.03 94.3228C2741.45 96.439 2742.66 99.0087 2742.66 102.032V102.939C2742.66 105.962 2741.45 108.683 2739.03 111.101C2736.91 113.218 2734.35 114.276 2731.32 114.276H2730.42C2727.39 114.276 2724.67 113.218 2722.25 111.101C2720.14 108.683 2719.08 105.962 2719.08 102.939V102.032C2719.08 99.0087 2720.14 96.439 2722.25 94.3228C2724.67 91.9043 2727.39 90.695 2730.42 90.695ZM2911.81 90.695H2912.71C2915.74 90.695 2918.3 91.9043 2920.42 94.3228C2922.84 96.439 2924.05 99.0087 2924.05 102.032V102.939C2924.05 105.962 2922.84 108.683 2920.42 111.101C2918.3 113.218 2915.74 114.276 2912.71 114.276H2911.81C2908.78 114.276 2906.06 113.218 2903.64 111.101C2901.53 108.683 2900.47 105.962 2900.47 102.939V102.032C2900.47 99.0087 2901.53 96.439 2903.64 94.3228C2906.06 91.9043 2908.78 90.695 2911.81 90.695ZM2730.42 136.043H2731.32C2734.35 136.043 2736.91 137.252 2739.03 139.67C2741.45 141.787 2742.66 144.356 2742.66 147.379V148.286C2742.66 151.31 2741.45 154.03 2739.03 156.449C2736.91 158.565 2734.35 159.623 2731.32 159.623H2730.42C2727.39 159.623 2724.67 158.565 2722.25 156.449C2720.14 154.03 2719.08 151.31 2719.08 148.286V147.379C2719.08 144.356 2720.14 141.787 2722.25 139.67C2724.67 137.252 2727.39 136.043 2730.42 136.043ZM2911.81 136.043H2912.71C2915.74 136.043 2918.3 137.252 2920.42 139.67C2922.84 141.787 2924.05 144.356 2924.05 147.379V148.286C2924.05 151.31 2922.84 154.03 2920.42 156.449C2918.3 158.565 2915.74 159.623 2912.71 159.623H2911.81C2908.78 159.623 2906.06 158.565 2903.64 156.449C2901.53 154.03 2900.47 151.31 2900.47 148.286V147.379C2900.47 144.356 2901.53 141.787 2903.64 139.67C2906.06 137.252 2908.78 136.043 2911.81 136.043ZM2730.42 181.39H2731.32C2734.35 181.39 2736.91 182.599 2739.03 185.018C2741.45 187.134 2742.66 189.704 2742.66 192.727V193.634C2742.66 196.657 2741.45 199.378 2739.03 201.796C2736.91 203.913 2734.35 204.971 2731.32 204.971H2730.42C2727.39 204.971 2724.67 203.913 2722.25 201.796C2720.14 199.378 2719.08 196.657 2719.08 193.634V192.727C2719.08 189.704 2720.14 187.134 2722.25 185.018C2724.67 182.599 2727.39 181.39 2730.42 181.39ZM2911.81 181.39H2912.71C2915.74 181.39 2918.3 182.599 2920.42 185.018C2922.84 187.134 2924.05 189.704 2924.05 192.727V193.634C2924.05 196.657 2922.84 199.378 2920.42 201.796C2918.3 203.913 2915.74 204.971 2912.71 204.971H2911.81C2908.78 204.971 2906.06 203.913 2903.64 201.796C2901.53 199.378 2900.47 196.657 2900.47 193.634V192.727C2900.47 189.704 2901.53 187.134 2903.64 185.018C2906.06 182.599 2908.78 181.39 2911.81 181.39ZM2730.42 226.737H2731.32C2734.35 226.737 2736.91 227.947 2739.03 230.365C2741.45 232.482 2742.66 235.051 2742.66 238.074V238.981C2742.66 242.004 2741.45 244.725 2739.03 247.144C2736.91 249.26 2734.35 250.318 2731.32 250.318H2730.42C2727.39 250.318 2724.67 249.26 2722.25 247.144C2720.14 244.725 2719.08 242.004 2719.08 238.981V238.074C2719.08 235.051 2720.14 232.482 2722.25 230.365C2724.67 227.947 2727.39 226.737 2730.42 226.737ZM2911.81 226.737H2912.71C2915.74 226.737 2918.3 227.947 2920.42 230.365C2922.84 232.482 2924.05 235.051 2924.05 238.074V238.981C2924.05 242.004 2922.84 244.725 2920.42 247.144C2918.3 249.26 2915.74 250.318 2912.71 250.318H2911.81C2908.78 250.318 2906.06 249.26 2903.64 247.144C2901.53 244.725 2900.47 242.004 2900.47 238.981V238.074C2900.47 235.051 2901.53 232.482 2903.64 230.365C2906.06 227.947 2908.78 226.737 2911.81 226.737ZM2775.76 272.085H2776.67C2779.69 272.085 2782.26 273.294 2784.38 275.713C2786.8 277.829 2788.01 280.399 2788.01 283.422V284.329C2788.01 287.352 2786.8 290.073 2784.38 292.491C2782.26 294.608 2779.69 295.666 2776.67 295.666H2775.76C2772.74 295.666 2770.02 294.608 2767.6 292.491C2765.48 290.073 2764.43 287.352 2764.43 284.329V283.422C2764.43 280.399 2765.48 277.829 2767.6 275.713C2770.02 273.294 2772.74 272.085 2775.76 272.085ZM2821.11 272.085H2822.02C2825.04 272.085 2827.61 273.294 2829.73 275.713C2832.14 277.829 2833.35 280.399 2833.35 283.422V284.329C2833.35 287.352 2832.14 290.073 2829.73 292.491C2827.61 294.608 2825.04 295.666 2822.02 295.666H2821.11C2818.09 295.666 2815.37 294.608 2812.95 292.491C2810.83 290.073 2809.77 287.352 2809.77 284.329V283.422C2809.77 280.399 2810.83 277.829 2812.95 275.713C2815.37 273.294 2818.09 272.085 2821.11 272.085ZM2866.46 272.085H2867.36C2870.39 272.085 2872.96 273.294 2875.07 275.713C2877.49 277.829 2878.7 280.399 2878.7 283.422V284.329C2878.7 287.352 2877.49 290.073 2875.07 292.491C2872.96 294.608 2870.39 295.666 2867.36 295.666H2866.46C2863.43 295.666 2860.71 294.608 2858.3 292.491C2856.18 290.073 2855.12 287.352 2855.12 284.329V283.422C2855.12 280.399 2856.18 277.829 2858.3 275.713C2860.71 273.294 2863.43 272.085 2866.46 272.085Z" fill="#1A1A1A"/>
<path d="M2458.51 0H2459.42C2462.44 0 2465.01 1.20925 2467.12 3.62779C2469.54 5.74402 2470.75 8.31372 2470.75 11.3369V12.2438C2470.75 15.267 2469.54 17.9878 2467.12 20.4064C2465.01 22.5226 2462.44 23.5807 2459.42 23.5807H2458.51C2455.49 23.5807 2452.76 22.5226 2450.35 20.4064C2448.23 17.9878 2447.17 15.267 2447.17 12.2438V11.3369C2447.17 8.31372 2448.23 5.74402 2450.35 3.62779C2452.76 1.20925 2455.49 0 2458.51 0ZM2639.9 0H2640.81C2643.83 0 2646.4 1.20925 2648.51 3.62779C2650.93 5.74402 2652.14 8.31372 2652.14 11.3369V12.2438C2652.14 15.267 2650.93 17.9878 2648.51 20.4064C2646.4 22.5226 2643.83 23.5807 2640.81 23.5807H2639.9C2636.88 23.5807 2634.15 22.5226 2631.74 20.4064C2629.62 17.9878 2628.56 15.267 2628.56 12.2438V11.3369C2628.56 8.31372 2629.62 5.74402 2631.74 3.62779C2634.15 1.20925 2636.88 0 2639.9 0ZM2458.51 45.3475H2459.42C2462.44 45.3475 2465.01 46.5568 2467.12 48.9753C2469.54 51.0915 2470.75 53.6612 2470.75 56.6844V57.5913C2470.75 60.6145 2469.54 63.3353 2467.12 65.7539C2465.01 67.8701 2462.44 68.9282 2459.42 68.9282H2458.51C2455.49 68.9282 2452.76 67.8701 2450.35 65.7539C2448.23 63.3353 2447.17 60.6145 2447.17 57.5913V56.6844C2447.17 53.6612 2448.23 51.0915 2450.35 48.9753C2452.76 46.5568 2455.49 45.3475 2458.51 45.3475ZM2639.9 45.3475H2640.81C2643.83 45.3475 2646.4 46.5568 2648.51 48.9753C2650.93 51.0915 2652.14 53.6612 2652.14 56.6844V57.5913C2652.14 60.6145 2650.93 63.3353 2648.51 65.7539C2646.4 67.8701 2643.83 68.9282 2640.81 68.9282H2639.9C2636.88 68.9282 2634.15 67.8701 2631.74 65.7539C2629.62 63.3353 2628.56 60.6145 2628.56 57.5913V56.6844C2628.56 53.6612 2629.62 51.0915 2631.74 48.9753C2634.15 46.5568 2636.88 45.3475 2639.9 45.3475ZM2458.51 90.695H2459.42C2462.44 90.695 2465.01 91.9043 2467.12 94.3228C2469.54 96.439 2470.75 99.0087 2470.75 102.032V102.939C2470.75 105.962 2469.54 108.683 2467.12 111.101C2465.01 113.218 2462.44 114.276 2459.42 114.276H2458.51C2455.49 114.276 2452.76 113.218 2450.35 111.101C2448.23 108.683 2447.17 105.962 2447.17 102.939V102.032C2447.17 99.0087 2448.23 96.439 2450.35 94.3228C2452.76 91.9043 2455.49 90.695 2458.51 90.695ZM2639.9 90.695H2640.81C2643.83 90.695 2646.4 91.9043 2648.51 94.3228C2650.93 96.439 2652.14 99.0087 2652.14 102.032V102.939C2652.14 105.962 2650.93 108.683 2648.51 111.101C2646.4 113.218 2643.83 114.276 2640.81 114.276H2639.9C2636.88 114.276 2634.15 113.218 2631.74 111.101C2629.62 108.683 2628.56 105.962 2628.56 102.939V102.032C2628.56 99.0087 2629.62 96.439 2631.74 94.3228C2634.15 91.9043 2636.88 90.695 2639.9 90.695ZM2458.51 136.043H2459.42C2462.44 136.043 2465.01 137.252 2467.12 139.67C2469.54 141.787 2470.75 144.356 2470.75 147.379V148.286C2470.75 151.31 2469.54 154.03 2467.12 156.449C2465.01 158.565 2462.44 159.623 2459.42 159.623H2458.51C2455.49 159.623 2452.76 158.565 2450.35 156.449C2448.23 154.03 2447.17 151.31 2447.17 148.286V147.379C2447.17 144.356 2448.23 141.787 2450.35 139.67C2452.76 137.252 2455.49 136.043 2458.51 136.043ZM2549.2 136.043H2550.11C2553.13 136.043 2555.7 137.252 2557.82 139.67C2560.24 141.787 2561.45 144.356 2561.45 147.379V148.286C2561.45 151.31 2560.24 154.03 2557.82 156.449C2555.7 158.565 2553.13 159.623 2550.11 159.623H2549.2C2546.18 159.623 2543.46 158.565 2541.04 156.449C2538.93 154.03 2537.87 151.31 2537.87 148.286V147.379C2537.87 144.356 2538.93 141.787 2541.04 139.67C2543.46 137.252 2546.18 136.043 2549.2 136.043ZM2639.9 136.043H2640.81C2643.83 136.043 2646.4 137.252 2648.51 139.67C2650.93 141.787 2652.14 144.356 2652.14 147.379V148.286C2652.14 151.31 2650.93 154.03 2648.51 156.449C2646.4 158.565 2643.83 159.623 2640.81 159.623H2639.9C2636.88 159.623 2634.15 158.565 2631.74 156.449C2629.62 154.03 2628.56 151.31 2628.56 148.286V147.379C2628.56 144.356 2629.62 141.787 2631.74 139.67C2634.15 137.252 2636.88 136.043 2639.9 136.043ZM2458.51 181.39H2459.42C2462.44 181.39 2465.01 182.599 2467.12 185.018C2469.54 187.134 2470.75 189.704 2470.75 192.727V193.634C2470.75 196.657 2469.54 199.378 2467.12 201.796C2465.01 203.913 2462.44 204.971 2459.42 204.971H2458.51C2455.49 204.971 2452.76 203.913 2450.35 201.796C2448.23 199.378 2447.17 196.657 2447.17 193.634V192.727C2447.17 189.704 2448.23 187.134 2450.35 185.018C2452.76 182.599 2455.49 181.39 2458.51 181.39ZM2549.2 181.39H2550.11C2553.13 181.39 2555.7 182.599 2557.82 185.018C2560.24 187.134 2561.45 189.704 2561.45 192.727V193.634C2561.45 196.657 2560.24 199.378 2557.82 201.796C2555.7 203.913 2553.13 204.971 2550.11 204.971H2549.2C2546.18 204.971 2543.46 203.913 2541.04 201.796C2538.93 199.378 2537.87 196.657 2537.87 193.634V192.727C2537.87 189.704 2538.93 187.134 2541.04 185.018C2543.46 182.599 2546.18 181.39 2549.2 181.39ZM2639.9 181.39H2640.81C2643.83 181.39 2646.4 182.599 2648.51 185.018C2650.93 187.134 2652.14 189.704 2652.14 192.727V193.634C2652.14 196.657 2650.93 199.378 2648.51 201.796C2646.4 203.913 2643.83 204.971 2640.81 204.971H2639.9C2636.88 204.971 2634.15 203.913 2631.74 201.796C2629.62 199.378 2628.56 196.657 2628.56 193.634V192.727C2628.56 189.704 2629.62 187.134 2631.74 185.018C2634.15 182.599 2636.88 181.39 2639.9 181.39ZM2458.51 226.737H2459.42C2462.44 226.737 2465.01 227.947 2467.12 230.365C2469.54 232.482 2470.75 235.051 2470.75 238.074V238.981C2470.75 242.004 2469.54 244.725 2467.12 247.144C2465.01 249.26 2462.44 250.318 2459.42 250.318H2458.51C2455.49 250.318 2452.76 249.26 2450.35 247.144C2448.23 244.725 2447.17 242.004 2447.17 238.981V238.074C2447.17 235.051 2448.23 232.482 2450.35 230.365C2452.76 227.947 2455.49 226.737 2458.51 226.737ZM2503.86 226.737H2504.76C2507.79 226.737 2510.36 227.947 2512.47 230.365C2514.89 232.482 2516.1 235.051 2516.1 238.074V238.981C2516.1 242.004 2514.89 244.725 2512.47 247.144C2510.36 249.26 2507.79 250.318 2504.76 250.318H2503.86C2500.83 250.318 2498.11 249.26 2495.69 247.144C2493.58 244.725 2492.52 242.004 2492.52 238.981V238.074C2492.52 235.051 2493.58 232.482 2495.69 230.365C2498.11 227.947 2500.83 226.737 2503.86 226.737ZM2594.55 226.737H2595.46C2598.48 226.737 2601.05 227.947 2603.17 230.365C2605.59 232.482 2606.8 235.051 2606.8 238.074V238.981C2606.8 242.004 2605.59 244.725 2603.17 247.144C2601.05 249.26 2598.48 250.318 2595.46 250.318H2594.55C2591.53 250.318 2588.81 249.26 2586.39 247.144C2584.27 244.725 2583.21 242.004 2583.21 238.981V238.074C2583.21 235.051 2584.27 232.482 2586.39 230.365C2588.81 227.947 2591.53 226.737 2594.55 226.737ZM2639.9 226.737H2640.81C2643.83 226.737 2646.4 227.947 2648.51 230.365C2650.93 232.482 2652.14 235.051 2652.14 238.074V238.981C2652.14 242.004 2650.93 244.725 2648.51 247.144C2646.4 249.26 2643.83 250.318 2640.81 250.318H2639.9C2636.88 250.318 2634.15 249.26 2631.74 247.144C2629.62 244.725 2628.56 242.004 2628.56 238.981V238.074C2628.56 235.051 2629.62 232.482 2631.74 230.365C2634.15 227.947 2636.88 226.737 2639.9 226.737ZM2458.51 272.085H2459.42C2462.44 272.085 2465.01 273.294 2467.12 275.713C2469.54 277.829 2470.75 280.399 2470.75 283.422V284.329C2470.75 287.352 2469.54 290.073 2467.12 292.491C2465.01 294.608 2462.44 295.666 2459.42 295.666H2458.51C2455.49 295.666 2452.76 294.608 2450.35 292.491C2448.23 290.073 2447.17 287.352 2447.17 284.329V283.422C2447.17 280.399 2448.23 277.829 2450.35 275.713C2452.76 273.294 2455.49 272.085 2458.51 272.085ZM2639.9 272.085H2640.81C2643.83 272.085 2646.4 273.294 2648.51 275.713C2650.93 277.829 2652.14 280.399 2652.14 283.422V284.329C2652.14 287.352 2650.93 290.073 2648.51 292.491C2646.4 294.608 2643.83 295.666 2640.81 295.666H2639.9C2636.88 295.666 2634.15 294.608 2631.74 292.491C2629.62 290.073 2628.56 287.352 2628.56 284.329V283.422C2628.56 280.399 2629.62 277.829 2631.74 275.713C2634.15 273.294 2636.88 272.085 2639.9 272.085Z" fill="#1A1A1A"/>
<path d="M1914.69 0H1915.6C1918.62 0 1921.19 1.20925 1923.31 3.62779C1925.73 5.74402 1926.94 8.31372 1926.94 11.3369V12.2438C1926.94 15.267 1925.73 17.9878 1923.31 20.4064C1921.19 22.5226 1918.62 23.5807 1915.6 23.5807H1914.69C1911.67 23.5807 1908.95 22.5226 1906.53 20.4064C1904.41 17.9878 1903.36 15.267 1903.36 12.2438V11.3369C1903.36 8.31372 1904.41 5.74402 1906.53 3.62779C1908.95 1.20925 1911.67 0 1914.69 0ZM1960.04 0H1960.95C1963.97 0 1966.54 1.20925 1968.66 3.62779C1971.07 5.74402 1972.28 8.31372 1972.28 11.3369V12.2438C1972.28 15.267 1971.07 17.9878 1968.66 20.4064C1966.54 22.5226 1963.97 23.5807 1960.95 23.5807H1960.04C1957.02 23.5807 1954.3 22.5226 1951.88 20.4064C1949.76 17.9878 1948.7 15.267 1948.7 12.2438V11.3369C1948.7 8.31372 1949.76 5.74402 1951.88 3.62779C1954.3 1.20925 1957.02 0 1960.04 0ZM2005.39 0H2006.29C2009.32 0 2011.89 1.20925 2014 3.62779C2016.42 5.74402 2017.63 8.31372 2017.63 11.3369V12.2438C2017.63 15.267 2016.42 17.9878 2014 20.4064C2011.89 22.5226 2009.32 23.5807 2006.29 23.5807H2005.39C2002.36 23.5807 1999.64 22.5226 1997.22 20.4064C1995.11 17.9878 1994.05 15.267 1994.05 12.2438V11.3369C1994.05 8.31372 1995.11 5.74402 1997.22 3.62779C1999.64 1.20925 2002.36 0 2005.39 0ZM2050.73 0H2051.64C2054.67 0 2057.23 1.20925 2059.35 3.62779C2061.77 5.74402 2062.98 8.31372 2062.98 11.3369V12.2438C2062.98 15.267 2061.77 17.9878 2059.35 20.4064C2057.23 22.5226 2054.67 23.5807 2051.64 23.5807H2050.73C2047.71 23.5807 2044.99 22.5226 2042.57 20.4064C2040.46 17.9878 2039.4 15.267 2039.4 12.2438V11.3369C2039.4 8.31372 2040.46 5.74402 2042.57 3.62779C2044.99 1.20925 2047.71 0 2050.73 0ZM1960.04 45.3475H1960.95C1963.97 45.3475 1966.54 46.5568 1968.66 48.9753C1971.07 51.0915 1972.28 53.6612 1972.28 56.6844V57.5913C1972.28 60.6145 1971.07 63.3353 1968.66 65.7539C1966.54 67.8701 1963.97 68.9282 1960.95 68.9282H1960.04C1957.02 68.9282 1954.3 67.8701 1951.88 65.7539C1949.76 63.3353 1948.7 60.6145 1948.7 57.5913V56.6844C1948.7 53.6612 1949.76 51.0915 1951.88 48.9753C1954.3 46.5568 1957.02 45.3475 1960.04 45.3475ZM2096.08 45.3475H2096.99C2100.01 45.3475 2102.58 46.5568 2104.7 48.9753C2107.12 51.0915 2108.33 53.6612 2108.33 56.6844V57.5913C2108.33 60.6145 2107.12 63.3353 2104.7 65.7539C2102.58 67.8701 2100.01 68.9282 2096.99 68.9282H2096.08C2093.06 68.9282 2090.34 67.8701 2087.92 65.7539C2085.8 63.3353 2084.75 60.6145 2084.75 57.5913V56.6844C2084.75 53.6612 2085.8 51.0915 2087.92 48.9753C2090.34 46.5568 2093.06 45.3475 2096.08 45.3475ZM1960.04 90.695H1960.95C1963.97 90.695 1966.54 91.9043 1968.66 94.3228C1971.07 96.439 1972.28 99.0087 1972.28 102.032V102.939C1972.28 105.962 1971.07 108.683 1968.66 111.101C1966.54 113.218 1963.97 114.276 1960.95 114.276H1960.04C1957.02 114.276 1954.3 113.218 1951.88 111.101C1949.76 108.683 1948.7 105.962 1948.7 102.939V102.032C1948.7 99.0087 1949.76 96.439 1951.88 94.3228C1954.3 91.9043 1957.02 90.695 1960.04 90.695ZM2096.08 90.695H2096.99C2100.01 90.695 2102.58 91.9043 2104.7 94.3228C2107.12 96.439 2108.33 99.0087 2108.33 102.032V102.939C2108.33 105.962 2107.12 108.683 2104.7 111.101C2102.58 113.218 2100.01 114.276 2096.99 114.276H2096.08C2093.06 114.276 2090.34 113.218 2087.92 111.101C2085.8 108.683 2084.75 105.962 2084.75 102.939V102.032C2084.75 99.0087 2085.8 96.439 2087.92 94.3228C2090.34 91.9043 2093.06 90.695 2096.08 90.695ZM1960.04 136.043H1960.95C1963.97 136.043 1966.54 137.252 1968.66 139.67C1971.07 141.787 1972.28 144.356 1972.28 147.379V148.286C1972.28 151.31 1971.07 154.03 1968.66 156.449C1966.54 158.565 1963.97 159.623 1960.95 159.623H1960.04C1957.02 159.623 1954.3 158.565 1951.88 156.449C1949.76 154.03 1948.7 151.31 1948.7 148.286V147.379C1948.7 144.356 1949.76 141.787 1951.88 139.67C1954.3 137.252 1957.02 136.043 1960.04 136.043ZM2096.08 136.043H2096.99C2100.01 136.043 2102.58 137.252 2104.7 139.67C2107.12 141.787 2108.33 144.356 2108.33 147.379V148.286C2108.33 151.31 2107.12 154.03 2104.7 156.449C2102.58 158.565 2100.01 159.623 2096.99 159.623H2096.08C2093.06 159.623 2090.34 158.565 2087.92 156.449C2085.8 154.03 2084.75 151.31 2084.75 148.286V147.379C2084.75 144.356 2085.8 141.787 2087.92 139.67C2090.34 137.252 2093.06 136.043 2096.08 136.043ZM1960.04 181.39H1960.95C1963.97 181.39 1966.54 182.599 1968.66 185.018C1971.07 187.134 1972.28 189.704 1972.28 192.727V193.634C1972.28 196.657 1971.07 199.378 1968.66 201.796C1966.54 203.913 1963.97 204.971 1960.95 204.971H1960.04C1957.02 204.971 1954.3 203.913 1951.88 201.796C1949.76 199.378 1948.7 196.657 1948.7 193.634V192.727C1948.7 189.704 1949.76 187.134 1951.88 185.018C1954.3 182.599 1957.02 181.39 1960.04 181.39ZM2096.08 181.39H2096.99C2100.01 181.39 2102.58 182.599 2104.7 185.018C2107.12 187.134 2108.33 189.704 2108.33 192.727V193.634C2108.33 196.657 2107.12 199.378 2104.7 201.796C2102.58 203.913 2100.01 204.971 2096.99 204.971H2096.08C2093.06 204.971 2090.34 203.913 2087.92 201.796C2085.8 199.378 2084.75 196.657 2084.75 193.634V192.727C2084.75 189.704 2085.8 187.134 2087.92 185.018C2090.34 182.599 2093.06 181.39 2096.08 181.39ZM1960.04 226.737H1960.95C1963.97 226.737 1966.54 227.947 1968.66 230.365C1971.07 232.482 1972.28 235.051 1972.28 238.074V238.981C1972.28 242.004 1971.07 244.725 1968.66 247.144C1966.54 249.26 1963.97 250.318 1960.95 250.318H1960.04C1957.02 250.318 1954.3 249.26 1951.88 247.144C1949.76 244.725 1948.7 242.004 1948.7 238.981V238.074C1948.7 235.051 1949.76 232.482 1951.88 230.365C1954.3 227.947 1957.02 226.737 1960.04 226.737ZM2096.08 226.737H2096.99C2100.01 226.737 2102.58 227.947 2104.7 230.365C2107.12 232.482 2108.33 235.051 2108.33 238.074V238.981C2108.33 242.004 2107.12 244.725 2104.7 247.144C2102.58 249.26 2100.01 250.318 2096.99 250.318H2096.08C2093.06 250.318 2090.34 249.26 2087.92 247.144C2085.8 244.725 2084.75 242.004 2084.75 238.981V238.074C2084.75 235.051 2085.8 232.482 2087.92 230.365C2090.34 227.947 2093.06 226.737 2096.08 226.737ZM1914.69 272.085H1915.6C1918.62 272.085 1921.19 273.294 1923.31 275.713C1925.73 277.829 1926.94 280.399 1926.94 283.422V284.329C1926.94 287.352 1925.73 290.073 1923.31 292.491C1921.19 294.608 1918.62 295.666 1915.6 295.666H1914.69C1911.67 295.666 1908.95 294.608 1906.53 292.491C1904.41 290.073 1903.36 287.352 1903.36 284.329V283.422C1903.36 280.399 1904.41 277.829 1906.53 275.713C1908.95 273.294 1911.67 272.085 1914.69 272.085ZM1960.04 272.085H1960.95C1963.97 272.085 1966.54 273.294 1968.66 275.713C1971.07 277.829 1972.28 280.399 1972.28 283.422V284.329C1972.28 287.352 1971.07 290.073 1968.66 292.491C1966.54 294.608 1963.97 295.666 1960.95 295.666H1960.04C1957.02 295.666 1954.3 294.608 1951.88 292.491C1949.76 290.073 1948.7 287.352 1948.7 284.329V283.422C1948.7 280.399 1949.76 277.829 1951.88 275.713C1954.3 273.294 1957.02 272.085 1960.04 272.085ZM2005.39 272.085H2006.29C2009.32 272.085 2011.89 273.294 2014 275.713C2016.42 277.829 2017.63 280.399 2017.63 283.422V284.329C2017.63 287.352 2016.42 290.073 2014 292.491C2011.89 294.608 2009.32 295.666 2006.29 295.666H2005.39C2002.36 295.666 1999.64 294.608 1997.22 292.491C1995.11 290.073 1994.05 287.352 1994.05 284.329V283.422C1994.05 280.399 1995.11 277.829 1997.22 275.713C1999.64 273.294 2002.36 272.085 2005.39 272.085ZM2050.73 272.085H2051.64C2054.67 272.085 2057.23 273.294 2059.35 275.713C2061.77 277.829 2062.98 280.399 2062.98 283.422V284.329C2062.98 287.352 2061.77 290.073 2059.35 292.491C2057.23 294.608 2054.67 295.666 2051.64 295.666H2050.73C2047.71 295.666 2044.99 294.608 2042.57 292.491C2040.46 290.073 2039.4 287.352 2039.4 284.329V283.422C2039.4 280.399 2040.46 277.829 2042.57 275.713C2044.99 273.294 2047.71 272.085 2050.73 272.085Z" fill="#1A1A1A"/>
<path d="M1642.79 0H1643.69C1646.72 0 1649.29 1.20925 1651.4 3.62779C1653.82 5.74402 1655.03 8.31372 1655.03 11.3369V12.2438C1655.03 15.267 1653.82 17.9878 1651.4 20.4064C1649.29 22.5226 1646.72 23.5807 1643.69 23.5807H1642.79C1639.76 23.5807 1637.04 22.5226 1634.62 20.4064C1632.51 17.9878 1631.45 15.267 1631.45 12.2438V11.3369C1631.45 8.31372 1632.51 5.74402 1634.62 3.62779C1637.04 1.20925 1639.76 0 1642.79 0ZM1688.13 0H1689.04C1692.06 0 1694.63 1.20925 1696.75 3.62779C1699.17 5.74402 1700.38 8.31372 1700.38 11.3369V12.2438C1700.38 15.267 1699.17 17.9878 1696.75 20.4064C1694.63 22.5226 1692.06 23.5807 1689.04 23.5807H1688.13C1685.11 23.5807 1682.39 22.5226 1679.97 20.4064C1677.85 17.9878 1676.8 15.267 1676.8 12.2438V11.3369C1676.8 8.31372 1677.85 5.74402 1679.97 3.62779C1682.39 1.20925 1685.11 0 1688.13 0ZM1733.48 0H1734.39C1737.41 0 1739.98 1.20925 1742.1 3.62779C1744.52 5.74402 1745.72 8.31372 1745.72 11.3369V12.2438C1745.72 15.267 1744.52 17.9878 1742.1 20.4064C1739.98 22.5226 1737.41 23.5807 1734.39 23.5807H1733.48C1730.46 23.5807 1727.74 22.5226 1725.32 20.4064C1723.2 17.9878 1722.14 15.267 1722.14 12.2438V11.3369C1722.14 8.31372 1723.2 5.74402 1725.32 3.62779C1727.74 1.20925 1730.46 0 1733.48 0ZM1778.83 0H1779.74C1782.76 0 1785.33 1.20925 1787.44 3.62779C1789.86 5.74402 1791.07 8.31372 1791.07 11.3369V12.2438C1791.07 15.267 1789.86 17.9878 1787.44 20.4064C1785.33 22.5226 1782.76 23.5807 1779.74 23.5807H1778.83C1775.81 23.5807 1773.08 22.5226 1770.67 20.4064C1768.55 17.9878 1767.49 15.267 1767.49 12.2438V11.3369C1767.49 8.31372 1768.55 5.74402 1770.67 3.62779C1773.08 1.20925 1775.81 0 1778.83 0ZM1824.18 0H1825.08C1828.11 0 1830.68 1.20925 1832.79 3.62779C1835.21 5.74402 1836.42 8.31372 1836.42 11.3369V12.2438C1836.42 15.267 1835.21 17.9878 1832.79 20.4064C1830.68 22.5226 1828.11 23.5807 1825.08 23.5807H1824.18C1821.15 23.5807 1818.43 22.5226 1816.01 20.4064C1813.9 17.9878 1812.84 15.267 1812.84 12.2438V11.3369C1812.84 8.31372 1813.9 5.74402 1816.01 3.62779C1818.43 1.20925 1821.15 0 1824.18 0ZM1642.79 45.3475H1643.69C1646.72 45.3475 1649.29 46.5568 1651.4 48.9753C1653.82 51.0915 1655.03 53.6612 1655.03 56.6844V57.5913C1655.03 60.6145 1653.82 63.3353 1651.4 65.7539C1649.29 67.8701 1646.72 68.9282 1643.69 68.9282H1642.79C1639.76 68.9282 1637.04 67.8701 1634.62 65.7539C1632.51 63.3353 1631.45 60.6145 1631.45 57.5913V56.6844C1631.45 53.6612 1632.51 51.0915 1634.62 48.9753C1637.04 46.5568 1639.76 45.3475 1642.79 45.3475ZM1642.79 90.695H1643.69C1646.72 90.695 1649.29 91.9043 1651.4 94.3228C1653.82 96.439 1655.03 99.0087 1655.03 102.032V102.939C1655.03 105.962 1653.82 108.683 1651.4 111.101C1649.29 113.218 1646.72 114.276 1643.69 114.276H1642.79C1639.76 114.276 1637.04 113.218 1634.62 111.101C1632.51 108.683 1631.45 105.962 1631.45 102.939V102.032C1631.45 99.0087 1632.51 96.439 1634.62 94.3228C1637.04 91.9043 1639.76 90.695 1642.79 90.695ZM1642.79 136.043H1643.69C1646.72 136.043 1649.29 137.252 1651.4 139.67C1653.82 141.787 1655.03 144.356 1655.03 147.379V148.286C1655.03 151.31 1653.82 154.03 1651.4 156.449C1649.29 158.565 1646.72 159.623 1643.69 159.623H1642.79C1639.76 159.623 1637.04 158.565 1634.62 156.449C1632.51 154.03 1631.45 151.31 1631.45 148.286V147.379C1631.45 144.356 1632.51 141.787 1634.62 139.67C1637.04 137.252 1639.76 136.043 1642.79 136.043ZM1688.13 136.043H1689.04C1692.06 136.043 1694.63 137.252 1696.75 139.67C1699.17 141.787 1700.38 144.356 1700.38 147.379V148.286C1700.38 151.31 1699.17 154.03 1696.75 156.449C1694.63 158.565 1692.06 159.623 1689.04 159.623H1688.13C1685.11 159.623 1682.39 158.565 1679.97 156.449C1677.85 154.03 1676.8 151.31 1676.8 148.286V147.379C1676.8 144.356 1677.85 141.787 1679.97 139.67C1682.39 137.252 1685.11 136.043 1688.13 136.043ZM1733.48 136.043H1734.39C1737.41 136.043 1739.98 137.252 1742.1 139.67C1744.52 141.787 1745.72 144.356 1745.72 147.379V148.286C1745.72 151.31 1744.52 154.03 1742.1 156.449C1739.98 158.565 1737.41 159.623 1734.39 159.623H1733.48C1730.46 159.623 1727.74 158.565 1725.32 156.449C1723.2 154.03 1722.14 151.31 1722.14 148.286V147.379C1722.14 144.356 1723.2 141.787 1725.32 139.67C1727.74 137.252 1730.46 136.043 1733.48 136.043ZM1778.83 136.043H1779.74C1782.76 136.043 1785.33 137.252 1787.44 139.67C1789.86 141.787 1791.07 144.356 1791.07 147.379V148.286C1791.07 151.31 1789.86 154.03 1787.44 156.449C1785.33 158.565 1782.76 159.623 1779.74 159.623H1778.83C1775.81 159.623 1773.08 158.565 1770.67 156.449C1768.55 154.03 1767.49 151.31 1767.49 148.286V147.379C1767.49 144.356 1768.55 141.787 1770.67 139.67C1773.08 137.252 1775.81 136.043 1778.83 136.043ZM1642.79 181.39H1643.69C1646.72 181.39 1649.29 182.599 1651.4 185.018C1653.82 187.134 1655.03 189.704 1655.03 192.727V193.634C1655.03 196.657 1653.82 199.378 1651.4 201.796C1649.29 203.913 1646.72 204.971 1643.69 204.971H1642.79C1639.76 204.971 1637.04 203.913 1634.62 201.796C1632.51 199.378 1631.45 196.657 1631.45 193.634V192.727C1631.45 189.704 1632.51 187.134 1634.62 185.018C1637.04 182.599 1639.76 181.39 1642.79 181.39ZM1642.79 226.737H1643.69C1646.72 226.737 1649.29 227.947 1651.4 230.365C1653.82 232.482 1655.03 235.051 1655.03 238.074V238.981C1655.03 242.004 1653.82 244.725 1651.4 247.144C1649.29 249.26 1646.72 250.318 1643.69 250.318H1642.79C1639.76 250.318 1637.04 249.26 1634.62 247.144C1632.51 244.725 1631.45 242.004 1631.45 238.981V238.074C1631.45 235.051 1632.51 232.482 1634.62 230.365C1637.04 227.947 1639.76 226.737 1642.79 226.737ZM1642.79 272.085H1643.69C1646.72 272.085 1649.29 273.294 1651.4 275.713C1653.82 277.829 1655.03 280.399 1655.03 283.422V284.329C1655.03 287.352 1653.82 290.073 1651.4 292.491C1649.29 294.608 1646.72 295.666 1643.69 295.666H1642.79C1639.76 295.666 1637.04 294.608 1634.62 292.491C1632.51 290.073 1631.45 287.352 1631.45 284.329V283.422C1631.45 280.399 1632.51 277.829 1634.62 275.713C1637.04 273.294 1639.76 272.085 1642.79 272.085ZM1688.13 272.085H1689.04C1692.06 272.085 1694.63 273.294 1696.75 275.713C1699.17 277.829 1700.38 280.399 1700.38 283.422V284.329C1700.38 287.352 1699.17 290.073 1696.75 292.491C1694.63 294.608 1692.06 295.666 1689.04 295.666H1688.13C1685.11 295.666 1682.39 294.608 1679.97 292.491C1677.85 290.073 1676.8 287.352 1676.8 284.329V283.422C1676.8 280.399 1677.85 277.829 1679.97 275.713C1682.39 273.294 1685.11 272.085 1688.13 272.085ZM1733.48 272.085H1734.39C1737.41 272.085 1739.98 273.294 1742.1 275.713C1744.52 277.829 1745.72 280.399 1745.72 283.422V284.329C1745.72 287.352 1744.52 290.073 1742.1 292.491C1739.98 294.608 1737.41 295.666 1734.39 295.666H1733.48C1730.46 295.666 1727.74 294.608 1725.32 292.491C1723.2 290.073 1722.14 287.352 1722.14 284.329V283.422C1722.14 280.399 1723.2 277.829 1725.32 275.713C1727.74 273.294 1730.46 272.085 1733.48 272.085ZM1778.83 272.085H1779.74C1782.76 272.085 1785.33 273.294 1787.44 275.713C1789.86 277.829 1791.07 280.399 1791.07 283.422V284.329C1791.07 287.352 1789.86 290.073 1787.44 292.491C1785.33 294.608 1782.76 295.666 1779.74 295.666H1778.83C1775.81 295.666 1773.08 294.608 1770.67 292.491C1768.55 290.073 1767.49 287.352 1767.49 284.329V283.422C1767.49 280.399 1768.55 277.829 1770.67 275.713C1773.08 273.294 1775.81 272.085 1778.83 272.085ZM1824.18 272.085H1825.08C1828.11 272.085 1830.68 273.294 1832.79 275.713C1835.21 277.829 1836.42 280.399 1836.42 283.422V284.329C1836.42 287.352 1835.21 290.073 1832.79 292.491C1830.68 294.608 1828.11 295.666 1825.08 295.666H1824.18C1821.15 295.666 1818.43 294.608 1816.01 292.491C1813.9 290.073 1812.84 287.352 1812.84 284.329V283.422C1812.84 280.399 1813.9 277.829 1816.01 275.713C1818.43 273.294 1821.15 272.085 1824.18 272.085Z" fill="#1A1A1A"/>
<path d="M1370.88 0H1371.78C1374.81 0 1377.38 1.20925 1379.49 3.62779C1381.91 5.74402 1383.12 8.31372 1383.12 11.3369V12.2438C1383.12 15.267 1381.91 17.9878 1379.49 20.4064C1377.38 22.5226 1374.81 23.5807 1371.78 23.5807H1370.88C1367.85 23.5807 1365.13 22.5226 1362.71 20.4064C1360.6 17.9878 1359.54 15.267 1359.54 12.2438V11.3369C1359.54 8.31372 1360.6 5.74402 1362.71 3.62779C1365.13 1.20925 1367.85 0 1370.88 0ZM1416.22 0H1417.13C1420.15 0 1422.72 1.20925 1424.84 3.62779C1427.26 5.74402 1428.47 8.31372 1428.47 11.3369V12.2438C1428.47 15.267 1427.26 17.9878 1424.84 20.4064C1422.72 22.5226 1420.15 23.5807 1417.13 23.5807H1416.22C1413.2 23.5807 1410.48 22.5226 1408.06 20.4064C1405.94 17.9878 1404.89 15.267 1404.89 12.2438V11.3369C1404.89 8.31372 1405.94 5.74402 1408.06 3.62779C1410.48 1.20925 1413.2 0 1416.22 0ZM1461.57 0H1462.48C1465.5 0 1468.07 1.20925 1470.19 3.62779C1472.61 5.74402 1473.81 8.31372 1473.81 11.3369V12.2438C1473.81 15.267 1472.61 17.9878 1470.19 20.4064C1468.07 22.5226 1465.5 23.5807 1462.48 23.5807H1461.57C1458.55 23.5807 1455.83 22.5226 1453.41 20.4064C1451.29 17.9878 1450.23 15.267 1450.23 12.2438V11.3369C1450.23 8.31372 1451.29 5.74402 1453.41 3.62779C1455.83 1.20925 1458.55 0 1461.57 0ZM1506.92 0H1507.83C1510.85 0 1513.42 1.20925 1515.53 3.62779C1517.95 5.74402 1519.16 8.31372 1519.16 11.3369V12.2438C1519.16 15.267 1517.95 17.9878 1515.53 20.4064C1513.42 22.5226 1510.85 23.5807 1507.83 23.5807H1506.92C1503.9 23.5807 1501.17 22.5226 1498.76 20.4064C1496.64 17.9878 1495.58 15.267 1495.58 12.2438V11.3369C1495.58 8.31372 1496.64 5.74402 1498.76 3.62779C1501.17 1.20925 1503.9 0 1506.92 0ZM1552.27 0H1553.17C1556.2 0 1558.77 1.20925 1560.88 3.62779C1563.3 5.74402 1564.51 8.31372 1564.51 11.3369V12.2438C1564.51 15.267 1563.3 17.9878 1560.88 20.4064C1558.77 22.5226 1556.2 23.5807 1553.17 23.5807H1552.27C1549.24 23.5807 1546.52 22.5226 1544.1 20.4064C1541.99 17.9878 1540.93 15.267 1540.93 12.2438V11.3369C1540.93 8.31372 1541.99 5.74402 1544.1 3.62779C1546.52 1.20925 1549.24 0 1552.27 0ZM1461.57 45.3475H1462.48C1465.5 45.3475 1468.07 46.5568 1470.19 48.9753C1472.61 51.0915 1473.81 53.6612 1473.81 56.6844V57.5913C1473.81 60.6145 1472.61 63.3353 1470.19 65.7539C1468.07 67.8701 1465.5 68.9282 1462.48 68.9282H1461.57C1458.55 68.9282 1455.83 67.8701 1453.41 65.7539C1451.29 63.3353 1450.23 60.6145 1450.23 57.5913V56.6844C1450.23 53.6612 1451.29 51.0915 1453.41 48.9753C1455.83 46.5568 1458.55 45.3475 1461.57 45.3475ZM1461.57 90.695H1462.48C1465.5 90.695 1468.07 91.9043 1470.19 94.3228C1472.61 96.439 1473.81 99.0087 1473.81 102.032V102.939C1473.81 105.962 1472.61 108.683 1470.19 111.101C1468.07 113.218 1465.5 114.276 1462.48 114.276H1461.57C1458.55 114.276 1455.83 113.218 1453.41 111.101C1451.29 108.683 1450.23 105.962 1450.23 102.939V102.032C1450.23 99.0087 1451.29 96.439 1453.41 94.3228C1455.83 91.9043 1458.55 90.695 1461.57 90.695ZM1461.57 136.043H1462.48C1465.5 136.043 1468.07 137.252 1470.19 139.67C1472.61 141.787 1473.81 144.356 1473.81 147.379V148.286C1473.81 151.31 1472.61 154.03 1470.19 156.449C1468.07 158.565 1465.5 159.623 1462.48 159.623H1461.57C1458.55 159.623 1455.83 158.565 1453.41 156.449C1451.29 154.03 1450.23 151.31 1450.23 148.286V147.379C1450.23 144.356 1451.29 141.787 1453.41 139.67C1455.83 137.252 1458.55 136.043 1461.57 136.043ZM1461.57 181.39H1462.48C1465.5 181.39 1468.07 182.599 1470.19 185.018C1472.61 187.134 1473.81 189.704 1473.81 192.727V193.634C1473.81 196.657 1472.61 199.378 1470.19 201.796C1468.07 203.913 1465.5 204.971 1462.48 204.971H1461.57C1458.55 204.971 1455.83 203.913 1453.41 201.796C1451.29 199.378 1450.23 196.657 1450.23 193.634V192.727C1450.23 189.704 1451.29 187.134 1453.41 185.018C1455.83 182.599 1458.55 181.39 1461.57 181.39ZM1461.57 226.737H1462.48C1465.5 226.737 1468.07 227.947 1470.19 230.365C1472.61 232.482 1473.81 235.051 1473.81 238.074V238.981C1473.81 242.004 1472.61 244.725 1470.19 247.144C1468.07 249.26 1465.5 250.318 1462.48 250.318H1461.57C1458.55 250.318 1455.83 249.26 1453.41 247.144C1451.29 244.725 1450.23 242.004 1450.23 238.981V238.074C1450.23 235.051 1451.29 232.482 1453.41 230.365C1455.83 227.947 1458.55 226.737 1461.57 226.737ZM1461.57 272.085H1462.48C1465.5 272.085 1468.07 273.294 1470.19 275.713C1472.61 277.829 1473.81 280.399 1473.81 283.422V284.329C1473.81 287.352 1472.61 290.073 1470.19 292.491C1468.07 294.608 1465.5 295.666 1462.48 295.666H1461.57C1458.55 295.666 1455.83 294.608 1453.41 292.491C1451.29 290.073 1450.23 287.352 1450.23 284.329V283.422C1450.23 280.399 1451.29 277.829 1453.41 275.713C1455.83 273.294 1458.55 272.085 1461.57 272.085Z" fill="#1A1A1A"/>
<path d="M1144.32 0H1145.22C1148.25 0 1150.82 1.20925 1152.93 3.62779C1155.35 5.74402 1156.56 8.31372 1156.56 11.3369V12.2438C1156.56 15.267 1155.35 17.9878 1152.93 20.4064C1150.82 22.5226 1148.25 23.5807 1145.22 23.5807H1144.32C1141.29 23.5807 1138.57 22.5226 1136.15 20.4064C1134.04 17.9878 1132.98 15.267 1132.98 12.2438V11.3369C1132.98 8.31372 1134.04 5.74402 1136.15 3.62779C1138.57 1.20925 1141.29 0 1144.32 0ZM1189.66 0H1190.57C1193.59 0 1196.16 1.20925 1198.28 3.62779C1200.7 5.74402 1201.91 8.31372 1201.91 11.3369V12.2438C1201.91 15.267 1200.7 17.9878 1198.28 20.4064C1196.16 22.5226 1193.59 23.5807 1190.57 23.5807H1189.66C1186.64 23.5807 1183.92 22.5226 1181.5 20.4064C1179.39 17.9878 1178.33 15.267 1178.33 12.2438V11.3369C1178.33 8.31372 1179.39 5.74402 1181.5 3.62779C1183.92 1.20925 1186.64 0 1189.66 0ZM1235.01 0H1235.92C1238.94 0 1241.51 1.20925 1243.63 3.62779C1246.05 5.74402 1247.26 8.31372 1247.26 11.3369V12.2438C1247.26 15.267 1246.05 17.9878 1243.63 20.4064C1241.51 22.5226 1238.94 23.5807 1235.92 23.5807H1235.01C1231.99 23.5807 1229.27 22.5226 1226.85 20.4064C1224.73 17.9878 1223.68 15.267 1223.68 12.2438V11.3369C1223.68 8.31372 1224.73 5.74402 1226.85 3.62779C1229.27 1.20925 1231.99 0 1235.01 0ZM1098.97 45.3475H1099.88C1102.9 45.3475 1105.47 46.5568 1107.59 48.9753C1110 51.0915 1111.21 53.6612 1111.21 56.6844V57.5913C1111.21 60.6145 1110 63.3353 1107.59 65.7539C1105.47 67.8701 1102.9 68.9282 1099.88 68.9282H1098.97C1095.95 68.9282 1093.23 67.8701 1090.81 65.7539C1088.69 63.3353 1087.63 60.6145 1087.63 57.5913V56.6844C1087.63 53.6612 1088.69 51.0915 1090.81 48.9753C1093.23 46.5568 1095.95 45.3475 1098.97 45.3475ZM1280.36 45.3475H1281.27C1284.29 45.3475 1286.86 46.5568 1288.98 48.9753C1291.39 51.0915 1292.6 53.6612 1292.6 56.6844V57.5913C1292.6 60.6145 1291.39 63.3353 1288.98 65.7539C1286.86 67.8701 1284.29 68.9282 1281.27 68.9282H1280.36C1277.34 68.9282 1274.62 67.8701 1272.2 65.7539C1270.08 63.3353 1269.02 60.6145 1269.02 57.5913V56.6844C1269.02 53.6612 1270.08 51.0915 1272.2 48.9753C1274.62 46.5568 1277.34 45.3475 1280.36 45.3475ZM1098.97 90.695H1099.88C1102.9 90.695 1105.47 91.9043 1107.59 94.3228C1110 96.439 1111.21 99.0087 1111.21 102.032V102.939C1111.21 105.962 1110 108.683 1107.59 111.101C1105.47 113.218 1102.9 114.276 1099.88 114.276H1098.97C1095.95 114.276 1093.23 113.218 1090.81 111.101C1088.69 108.683 1087.63 105.962 1087.63 102.939V102.032C1087.63 99.0087 1088.69 96.439 1090.81 94.3228C1093.23 91.9043 1095.95 90.695 1098.97 90.695ZM1098.97 136.043H1099.88C1102.9 136.043 1105.47 137.252 1107.59 139.67C1110 141.787 1111.21 144.356 1111.21 147.379V148.286C1111.21 151.31 1110 154.03 1107.59 156.449C1105.47 158.565 1102.9 159.623 1099.88 159.623H1098.97C1095.95 159.623 1093.23 158.565 1090.81 156.449C1088.69 154.03 1087.63 151.31 1087.63 148.286V147.379C1087.63 144.356 1088.69 141.787 1090.81 139.67C1093.23 137.252 1095.95 136.043 1098.97 136.043ZM1098.97 181.39H1099.88C1102.9 181.39 1105.47 182.599 1107.59 185.018C1110 187.134 1111.21 189.704 1111.21 192.727V193.634C1111.21 196.657 1110 199.378 1107.59 201.796C1105.47 203.913 1102.9 204.971 1099.88 204.971H1098.97C1095.95 204.971 1093.23 203.913 1090.81 201.796C1088.69 199.378 1087.63 196.657 1087.63 193.634V192.727C1087.63 189.704 1088.69 187.134 1090.81 185.018C1093.23 182.599 1095.95 181.39 1098.97 181.39ZM1098.97 226.737H1099.88C1102.9 226.737 1105.47 227.947 1107.59 230.365C1110 232.482 1111.21 235.051 1111.21 238.074V238.981C1111.21 242.004 1110 244.725 1107.59 247.144C1105.47 249.26 1102.9 250.318 1099.88 250.318H1098.97C1095.95 250.318 1093.23 249.26 1090.81 247.144C1088.69 244.725 1087.63 242.004 1087.63 238.981V238.074C1087.63 235.051 1088.69 232.482 1090.81 230.365C1093.23 227.947 1095.95 226.737 1098.97 226.737ZM1280.36 226.737H1281.27C1284.29 226.737 1286.86 227.947 1288.98 230.365C1291.39 232.482 1292.6 235.051 1292.6 238.074V238.981C1292.6 242.004 1291.39 244.725 1288.98 247.144C1286.86 249.26 1284.29 250.318 1281.27 250.318H1280.36C1277.34 250.318 1274.62 249.26 1272.2 247.144C1270.08 244.725 1269.02 242.004 1269.02 238.981V238.074C1269.02 235.051 1270.08 232.482 1272.2 230.365C1274.62 227.947 1277.34 226.737 1280.36 226.737ZM1144.32 272.085H1145.22C1148.25 272.085 1150.82 273.294 1152.93 275.713C1155.35 277.829 1156.56 280.399 1156.56 283.422V284.329C1156.56 287.352 1155.35 290.073 1152.93 292.491C1150.82 294.608 1148.25 295.666 1145.22 295.666H1144.32C1141.29 295.666 1138.57 294.608 1136.15 292.491C1134.04 290.073 1132.98 287.352 1132.98 284.329V283.422C1132.98 280.399 1134.04 277.829 1136.15 275.713C1138.57 273.294 1141.29 272.085 1144.32 272.085ZM1189.66 272.085H1190.57C1193.59 272.085 1196.16 273.294 1198.28 275.713C1200.7 277.829 1201.91 280.399 1201.91 283.422V284.329C1201.91 287.352 1200.7 290.073 1198.28 292.491C1196.16 294.608 1193.59 295.666 1190.57 295.666H1189.66C1186.64 295.666 1183.92 294.608 1181.5 292.491C1179.39 290.073 1178.33 287.352 1178.33 284.329V283.422C1178.33 280.399 1179.39 277.829 1181.5 275.713C1183.92 273.294 1186.64 272.085 1189.66 272.085ZM1235.01 272.085H1235.92C1238.94 272.085 1241.51 273.294 1243.63 275.713C1246.05 277.829 1247.26 280.399 1247.26 283.422V284.329C1247.26 287.352 1246.05 290.073 1243.63 292.491C1241.51 294.608 1238.94 295.666 1235.92 295.666H1235.01C1231.99 295.666 1229.27 294.608 1226.85 292.491C1224.73 290.073 1223.68 287.352 1223.68 284.329V283.422C1223.68 280.399 1224.73 277.829 1226.85 275.713C1229.27 273.294 1231.99 272.085 1235.01 272.085Z" fill="#1A1A1A"/>
<path d="M827.06 0H827.966C830.99 0 833.559 1.20925 835.676 3.62779C838.094 5.74402 839.303 8.31372 839.303 11.3369V12.2438C839.303 15.267 838.094 17.9878 835.676 20.4064C833.559 22.5226 830.99 23.5807 827.966 23.5807H827.06C824.036 23.5807 821.316 22.5226 818.897 20.4064C816.781 17.9878 815.723 15.267 815.723 12.2438V11.3369C815.723 8.31372 816.781 5.74402 818.897 3.62779C821.316 1.20925 824.036 0 827.06 0ZM872.407 0H873.314C876.337 0 878.907 1.20925 881.023 3.62779C883.442 5.74402 884.651 8.31372 884.651 11.3369V12.2438C884.651 15.267 883.442 17.9878 881.023 20.4064C878.907 22.5226 876.337 23.5807 873.314 23.5807H872.407C869.384 23.5807 866.663 22.5226 864.244 20.4064C862.128 17.9878 861.07 15.267 861.07 12.2438V11.3369C861.07 8.31372 862.128 5.74402 864.244 3.62779C866.663 1.20925 869.384 0 872.407 0ZM917.755 0H918.661C921.685 0 924.254 1.20925 926.371 3.62779C928.789 5.74402 929.998 8.31372 929.998 11.3369V12.2438C929.998 15.267 928.789 17.9878 926.371 20.4064C924.254 22.5226 921.685 23.5807 918.661 23.5807H917.755C914.731 23.5807 912.011 22.5226 909.592 20.4064C907.476 17.9878 906.418 15.267 906.418 12.2438V11.3369C906.418 8.31372 907.476 5.74402 909.592 3.62779C912.011 1.20925 914.731 0 917.755 0ZM963.102 0H964.009C967.032 0 969.602 1.20925 971.718 3.62779C974.137 5.74402 975.346 8.31372 975.346 11.3369V12.2438C975.346 15.267 974.137 17.9878 971.718 20.4064C969.602 22.5226 967.032 23.5807 964.009 23.5807H963.102C960.079 23.5807 957.358 22.5226 954.939 20.4064C952.823 17.9878 951.765 15.267 951.765 12.2438V11.3369C951.765 8.31372 952.823 5.74402 954.939 3.62779C957.358 1.20925 960.079 0 963.102 0ZM1008.45 0H1009.36C1012.38 0 1014.95 1.20925 1017.07 3.62779C1019.48 5.74402 1020.69 8.31372 1020.69 11.3369V12.2438C1020.69 15.267 1019.48 17.9878 1017.07 20.4064C1014.95 22.5226 1012.38 23.5807 1009.36 23.5807H1008.45C1005.43 23.5807 1002.71 22.5226 1000.29 20.4064C998.171 17.9878 997.113 15.267 997.113 12.2438V11.3369C997.113 8.31372 998.171 5.74402 1000.29 3.62779C1002.71 1.20925 1005.43 0 1008.45 0ZM827.06 45.3475H827.966C830.99 45.3475 833.559 46.5568 835.676 48.9753C838.094 51.0915 839.303 53.6612 839.303 56.6844V57.5913C839.303 60.6145 838.094 63.3353 835.676 65.7539C833.559 67.8701 830.99 68.9282 827.966 68.9282H827.06C824.036 68.9282 821.316 67.8701 818.897 65.7539C816.781 63.3353 815.723 60.6145 815.723 57.5913V56.6844C815.723 53.6612 816.781 51.0915 818.897 48.9753C821.316 46.5568 824.036 45.3475 827.06 45.3475ZM827.06 90.695H827.966C830.99 90.695 833.559 91.9043 835.676 94.3228C838.094 96.439 839.303 99.0087 839.303 102.032V102.939C839.303 105.962 838.094 108.683 835.676 111.101C833.559 113.218 830.99 114.276 827.966 114.276H827.06C824.036 114.276 821.316 113.218 818.897 111.101C816.781 108.683 815.723 105.962 815.723 102.939V102.032C815.723 99.0087 816.781 96.439 818.897 94.3228C821.316 91.9043 824.036 90.695 827.06 90.695ZM827.06 136.043H827.966C830.99 136.043 833.559 137.252 835.676 139.67C838.094 141.787 839.303 144.356 839.303 147.379V148.286C839.303 151.31 838.094 154.03 835.676 156.449C833.559 158.565 830.99 159.623 827.966 159.623H827.06C824.036 159.623 821.316 158.565 818.897 156.449C816.781 154.03 815.723 151.31 815.723 148.286V147.379C815.723 144.356 816.781 141.787 818.897 139.67C821.316 137.252 824.036 136.043 827.06 136.043ZM872.407 136.043H873.314C876.337 136.043 878.907 137.252 881.023 139.67C883.442 141.787 884.651 144.356 884.651 147.379V148.286C884.651 151.31 883.442 154.03 881.023 156.449C878.907 158.565 876.337 159.623 873.314 159.623H872.407C869.384 159.623 866.663 158.565 864.244 156.449C862.128 154.03 861.07 151.31 861.07 148.286V147.379C861.07 144.356 862.128 141.787 864.244 139.67C866.663 137.252 869.384 136.043 872.407 136.043ZM917.755 136.043H918.661C921.685 136.043 924.254 137.252 926.371 139.67C928.789 141.787 929.998 144.356 929.998 147.379V148.286C929.998 151.31 928.789 154.03 926.371 156.449C924.254 158.565 921.685 159.623 918.661 159.623H917.755C914.731 159.623 912.011 158.565 909.592 156.449C907.476 154.03 906.418 151.31 906.418 148.286V147.379C906.418 144.356 907.476 141.787 909.592 139.67C912.011 137.252 914.731 136.043 917.755 136.043ZM963.102 136.043H964.009C967.032 136.043 969.602 137.252 971.718 139.67C974.137 141.787 975.346 144.356 975.346 147.379V148.286C975.346 151.31 974.137 154.03 971.718 156.449C969.602 158.565 967.032 159.623 964.009 159.623H963.102C960.079 159.623 957.358 158.565 954.939 156.449C952.823 154.03 951.765 151.31 951.765 148.286V147.379C951.765 144.356 952.823 141.787 954.939 139.67C957.358 137.252 960.079 136.043 963.102 136.043ZM827.06 181.39H827.966C830.99 181.39 833.559 182.599 835.676 185.018C838.094 187.134 839.303 189.704 839.303 192.727V193.634C839.303 196.657 838.094 199.378 835.676 201.796C833.559 203.913 830.99 204.971 827.966 204.971H827.06C824.036 204.971 821.316 203.913 818.897 201.796C816.781 199.378 815.723 196.657 815.723 193.634V192.727C815.723 189.704 816.781 187.134 818.897 185.018C821.316 182.599 824.036 181.39 827.06 181.39ZM827.06 226.737H827.966C830.99 226.737 833.559 227.947 835.676 230.365C838.094 232.482 839.303 235.051 839.303 238.074V238.981C839.303 242.004 838.094 244.725 835.676 247.144C833.559 249.26 830.99 250.318 827.966 250.318H827.06C824.036 250.318 821.316 249.26 818.897 247.144C816.781 244.725 815.723 242.004 815.723 238.981V238.074C815.723 235.051 816.781 232.482 818.897 230.365C821.316 227.947 824.036 226.737 827.06 226.737ZM827.06 272.085H827.966C830.99 272.085 833.559 273.294 835.676 275.713C838.094 277.829 839.303 280.399 839.303 283.422V284.329C839.303 287.352 838.094 290.073 835.676 292.491C833.559 294.608 830.99 295.666 827.966 295.666H827.06C824.036 295.666 821.316 294.608 818.897 292.491C816.781 290.073 815.723 287.352 815.723 284.329V283.422C815.723 280.399 816.781 277.829 818.897 275.713C821.316 273.294 824.036 272.085 827.06 272.085ZM872.407 272.085H873.314C876.337 272.085 878.907 273.294 881.023 275.713C883.442 277.829 884.651 280.399 884.651 283.422V284.329C884.651 287.352 883.442 290.073 881.023 292.491C878.907 294.608 876.337 295.666 873.314 295.666H872.407C869.384 295.666 866.663 294.608 864.244 292.491C862.128 290.073 861.07 287.352 861.07 284.329V283.422C861.07 280.399 862.128 277.829 864.244 275.713C866.663 273.294 869.384 272.085 872.407 272.085ZM917.755 272.085H918.661C921.685 272.085 924.254 273.294 926.371 275.713C928.789 277.829 929.998 280.399 929.998 283.422V284.329C929.998 287.352 928.789 290.073 926.371 292.491C924.254 294.608 921.685 295.666 918.661 295.666H917.755C914.731 295.666 912.011 294.608 909.592 292.491C907.476 290.073 906.418 287.352 906.418 284.329V283.422C906.418 280.399 907.476 277.829 909.592 275.713C912.011 273.294 914.731 272.085 917.755 272.085ZM963.102 272.085H964.009C967.032 272.085 969.602 273.294 971.718 275.713C974.137 277.829 975.346 280.399 975.346 283.422V284.329C975.346 287.352 974.137 290.073 971.718 292.491C969.602 294.608 967.032 295.666 964.009 295.666H963.102C960.079 295.666 957.358 294.608 954.939 292.491C952.823 290.073 951.765 287.352 951.765 284.329V283.422C951.765 280.399 952.823 277.829 954.939 275.713C957.358 273.294 960.079 272.085 963.102 272.085ZM1008.45 272.085H1009.36C1012.38 272.085 1014.95 273.294 1017.07 275.713C1019.48 277.829 1020.69 280.399 1020.69 283.422V284.329C1020.69 287.352 1019.48 290.073 1017.07 292.491C1014.95 294.608 1012.38 295.666 1009.36 295.666H1008.45C1005.43 295.666 1002.71 294.608 1000.29 292.491C998.171 290.073 997.113 287.352 997.113 284.329V283.422C997.113 280.399 998.171 277.829 1000.29 275.713C1002.71 273.294 1005.43 272.085 1008.45 272.085Z" fill="#1A1A1A"/>
<path d="M555.153 0H556.06C559.083 0 561.653 1.20925 563.769 3.62779C566.188 5.74402 567.397 8.31372 567.397 11.3369V12.2438C567.397 15.267 566.188 17.9878 563.769 20.4064C561.653 22.5226 559.083 23.5807 556.06 23.5807H555.153C552.13 23.5807 549.409 22.5226 546.991 20.4064C544.875 17.9878 543.816 15.267 543.816 12.2438V11.3369C543.816 8.31372 544.875 5.74402 546.991 3.62779C549.409 1.20925 552.13 0 555.153 0ZM555.153 45.3475H556.06C559.083 45.3475 561.653 46.5568 563.769 48.9753C566.188 51.0915 567.397 53.6612 567.397 56.6844V57.5913C567.397 60.6145 566.188 63.3353 563.769 65.7539C561.653 67.8701 559.083 68.9282 556.06 68.9282H555.153C552.13 68.9282 549.409 67.8701 546.991 65.7539C544.875 63.3353 543.816 60.6145 543.816 57.5913V56.6844C543.816 53.6612 544.875 51.0915 546.991 48.9753C549.409 46.5568 552.13 45.3475 555.153 45.3475ZM555.153 90.695H556.06C559.083 90.695 561.653 91.9043 563.769 94.3228C566.188 96.439 567.397 99.0087 567.397 102.032V102.939C567.397 105.962 566.188 108.683 563.769 111.101C561.653 113.218 559.083 114.276 556.06 114.276H555.153C552.13 114.276 549.409 113.218 546.991 111.101C544.875 108.683 543.816 105.962 543.816 102.939V102.032C543.816 99.0087 544.875 96.439 546.991 94.3228C549.409 91.9043 552.13 90.695 555.153 90.695ZM555.153 136.043H556.06C559.083 136.043 561.653 137.252 563.769 139.67C566.188 141.787 567.397 144.356 567.397 147.379V148.286C567.397 151.31 566.188 154.03 563.769 156.449C561.653 158.565 559.083 159.623 556.06 159.623H555.153C552.13 159.623 549.409 158.565 546.991 156.449C544.875 154.03 543.816 151.31 543.816 148.286V147.379C543.816 144.356 544.875 141.787 546.991 139.67C549.409 137.252 552.13 136.043 555.153 136.043ZM555.153 181.39H556.06C559.083 181.39 561.653 182.599 563.769 185.018C566.188 187.134 567.397 189.704 567.397 192.727V193.634C567.397 196.657 566.188 199.378 563.769 201.796C561.653 203.913 559.083 204.971 556.06 204.971H555.153C552.13 204.971 549.409 203.913 546.991 201.796C544.875 199.378 543.816 196.657 543.816 193.634V192.727C543.816 189.704 544.875 187.134 546.991 185.018C549.409 182.599 552.13 181.39 555.153 181.39ZM555.153 226.737H556.06C559.083 226.737 561.653 227.947 563.769 230.365C566.188 232.482 567.397 235.051 567.397 238.074V238.981C567.397 242.004 566.188 244.725 563.769 247.144C561.653 249.26 559.083 250.318 556.06 250.318H555.153C552.13 250.318 549.409 249.26 546.991 247.144C544.875 244.725 543.816 242.004 543.816 238.981V238.074C543.816 235.051 544.875 232.482 546.991 230.365C549.409 227.947 552.13 226.737 555.153 226.737ZM555.153 272.085H556.06C559.083 272.085 561.653 273.294 563.769 275.713C566.188 277.829 567.397 280.399 567.397 283.422V284.329C567.397 287.352 566.188 290.073 563.769 292.491C561.653 294.608 559.083 295.666 556.06 295.666H555.153C552.13 295.666 549.409 294.608 546.991 292.491C544.875 290.073 543.816 287.352 543.816 284.329V283.422C543.816 280.399 544.875 277.829 546.991 275.713C549.409 273.294 552.13 272.085 555.153 272.085ZM600.501 272.085H601.408C604.431 272.085 607.001 273.294 609.117 275.713C611.535 277.829 612.745 280.399 612.745 283.422V284.329C612.745 287.352 611.535 290.073 609.117 292.491C607.001 294.608 604.431 295.666 601.408 295.666H600.501C597.478 295.666 594.757 294.608 592.338 292.491C590.222 290.073 589.164 287.352 589.164 284.329V283.422C589.164 280.399 590.222 277.829 592.338 275.713C594.757 273.294 597.478 272.085 600.501 272.085ZM645.848 272.085H646.755C649.778 272.085 652.348 273.294 654.464 275.713C656.883 277.829 658.092 280.399 658.092 283.422V284.329C658.092 287.352 656.883 290.073 654.464 292.491C652.348 294.608 649.778 295.666 646.755 295.666H645.848C642.825 295.666 640.104 294.608 637.686 292.491C635.57 290.073 634.511 287.352 634.511 284.329V283.422C634.511 280.399 635.57 277.829 637.686 275.713C640.104 273.294 642.825 272.085 645.848 272.085ZM691.196 272.085H692.103C695.126 272.085 697.696 273.294 699.812 275.713C702.23 277.829 703.44 280.399 703.44 283.422V284.329C703.44 287.352 702.23 290.073 699.812 292.491C697.696 294.608 695.126 295.666 692.103 295.666H691.196C688.173 295.666 685.452 294.608 683.033 292.491C680.917 290.073 679.859 287.352 679.859 284.329V283.422C679.859 280.399 680.917 277.829 683.033 275.713C685.452 273.294 688.173 272.085 691.196 272.085ZM736.543 272.085H737.45C740.473 272.085 743.043 273.294 745.159 275.713C747.578 277.829 748.787 280.399 748.787 283.422V284.329C748.787 287.352 747.578 290.073 745.159 292.491C743.043 294.608 740.473 295.666 737.45 295.666H736.543C733.52 295.666 730.799 294.608 728.381 292.491C726.265 290.073 725.206 287.352 725.206 284.329V283.422C725.206 280.399 726.265 277.829 728.381 275.713C730.799 273.294 733.52 272.085 736.543 272.085Z" fill="#1A1A1A"/>
<path d="M283.247 0H284.154C287.177 0 289.747 1.20925 291.863 3.62779C294.282 5.74402 295.491 8.31372 295.491 11.3369V12.2438C295.491 15.267 294.282 17.9878 291.863 20.4064C289.747 22.5226 287.177 23.5807 284.154 23.5807H283.247C280.224 23.5807 277.503 22.5226 275.085 20.4064C272.968 17.9878 271.91 15.267 271.91 12.2438V11.3369C271.91 8.31372 272.968 5.74402 275.085 3.62779C277.503 1.20925 280.224 0 283.247 0ZM328.595 0H329.501C332.525 0 335.094 1.20925 337.211 3.62779C339.629 5.74402 340.838 8.31372 340.838 11.3369V12.2438C340.838 15.267 339.629 17.9878 337.211 20.4064C335.094 22.5226 332.525 23.5807 329.501 23.5807H328.595C325.571 23.5807 322.851 22.5226 320.432 20.4064C318.316 17.9878 317.258 15.267 317.258 12.2438V11.3369C317.258 8.31372 318.316 5.74402 320.432 3.62779C322.851 1.20925 325.571 0 328.595 0ZM373.942 0H374.849C377.872 0 380.442 1.20925 382.558 3.62779C384.977 5.74402 386.186 8.31372 386.186 11.3369V12.2438C386.186 15.267 384.977 17.9878 382.558 20.4064C380.442 22.5226 377.872 23.5807 374.849 23.5807H373.942C370.919 23.5807 368.198 22.5226 365.779 20.4064C363.663 17.9878 362.605 15.267 362.605 12.2438V11.3369C362.605 8.31372 363.663 5.74402 365.779 3.62779C368.198 1.20925 370.919 0 373.942 0ZM419.29 0H420.196C423.22 0 425.789 1.20925 427.906 3.62779C430.324 5.74402 431.533 8.31372 431.533 11.3369V12.2438C431.533 15.267 430.324 17.9878 427.906 20.4064C425.789 22.5226 423.22 23.5807 420.196 23.5807H419.29C416.266 23.5807 413.546 22.5226 411.127 20.4064C409.011 17.9878 407.953 15.267 407.953 12.2438V11.3369C407.953 8.31372 409.011 5.74402 411.127 3.62779C413.546 1.20925 416.266 0 419.29 0ZM464.637 0H465.544C468.567 0 471.137 1.20925 473.253 3.62779C475.672 5.74402 476.881 8.31372 476.881 11.3369V12.2438C476.881 15.267 475.672 17.9878 473.253 20.4064C471.137 22.5226 468.567 23.5807 465.544 23.5807H464.637C461.614 23.5807 458.893 22.5226 456.474 20.4064C454.358 17.9878 453.3 15.267 453.3 12.2438V11.3369C453.3 8.31372 454.358 5.74402 456.474 3.62779C458.893 1.20925 461.614 0 464.637 0ZM283.247 45.3475H284.154C287.177 45.3475 289.747 46.5568 291.863 48.9753C294.282 51.0915 295.491 53.6612 295.491 56.6844V57.5913C295.491 60.6145 294.282 63.3353 291.863 65.7539C289.747 67.8701 287.177 68.9282 284.154 68.9282H283.247C280.224 68.9282 277.503 67.8701 275.085 65.7539C272.968 63.3353 271.91 60.6145 271.91 57.5913V56.6844C271.91 53.6612 272.968 51.0915 275.085 48.9753C277.503 46.5568 280.224 45.3475 283.247 45.3475ZM283.247 90.695H284.154C287.177 90.695 289.747 91.9043 291.863 94.3228C294.282 96.439 295.491 99.0087 295.491 102.032V102.939C295.491 105.962 294.282 108.683 291.863 111.101C289.747 113.218 287.177 114.276 284.154 114.276H283.247C280.224 114.276 277.503 113.218 275.085 111.101C272.968 108.683 271.91 105.962 271.91 102.939V102.032C271.91 99.0087 272.968 96.439 275.085 94.3228C277.503 91.9043 280.224 90.695 283.247 90.695ZM283.247 136.043H284.154C287.177 136.043 289.747 137.252 291.863 139.67C294.282 141.787 295.491 144.356 295.491 147.379V148.286C295.491 151.31 294.282 154.03 291.863 156.449C289.747 158.565 287.177 159.623 284.154 159.623H283.247C280.224 159.623 277.503 158.565 275.085 156.449C272.968 154.03 271.91 151.31 271.91 148.286V147.379C271.91 144.356 272.968 141.787 275.085 139.67C277.503 137.252 280.224 136.043 283.247 136.043ZM328.595 136.043H329.501C332.525 136.043 335.094 137.252 337.211 139.67C339.629 141.787 340.838 144.356 340.838 147.379V148.286C340.838 151.31 339.629 154.03 337.211 156.449C335.094 158.565 332.525 159.623 329.501 159.623H328.595C325.571 159.623 322.851 158.565 320.432 156.449C318.316 154.03 317.258 151.31 317.258 148.286V147.379C317.258 144.356 318.316 141.787 320.432 139.67C322.851 137.252 325.571 136.043 328.595 136.043ZM373.942 136.043H374.849C377.872 136.043 380.442 137.252 382.558 139.67C384.977 141.787 386.186 144.356 386.186 147.379V148.286C386.186 151.31 384.977 154.03 382.558 156.449C380.442 158.565 377.872 159.623 374.849 159.623H373.942C370.919 159.623 368.198 158.565 365.779 156.449C363.663 154.03 362.605 151.31 362.605 148.286V147.379C362.605 144.356 363.663 141.787 365.779 139.67C368.198 137.252 370.919 136.043 373.942 136.043ZM419.29 136.043H420.196C423.22 136.043 425.789 137.252 427.906 139.67C430.324 141.787 431.533 144.356 431.533 147.379V148.286C431.533 151.31 430.324 154.03 427.906 156.449C425.789 158.565 423.22 159.623 420.196 159.623H419.29C416.266 159.623 413.546 158.565 411.127 156.449C409.011 154.03 407.953 151.31 407.953 148.286V147.379C407.953 144.356 409.011 141.787 411.127 139.67C413.546 137.252 416.266 136.043 419.29 136.043ZM283.247 181.39H284.154C287.177 181.39 289.747 182.599 291.863 185.018C294.282 187.134 295.491 189.704 295.491 192.727V193.634C295.491 196.657 294.282 199.378 291.863 201.796C289.747 203.913 287.177 204.971 284.154 204.971H283.247C280.224 204.971 277.503 203.913 275.085 201.796C272.968 199.378 271.91 196.657 271.91 193.634V192.727C271.91 189.704 272.968 187.134 275.085 185.018C277.503 182.599 280.224 181.39 283.247 181.39ZM283.247 226.737H284.154C287.177 226.737 289.747 227.947 291.863 230.365C294.282 232.482 295.491 235.051 295.491 238.074V238.981C295.491 242.004 294.282 244.725 291.863 247.144C289.747 249.26 287.177 250.318 284.154 250.318H283.247C280.224 250.318 277.503 249.26 275.085 247.144C272.968 244.725 271.91 242.004 271.91 238.981V238.074C271.91 235.051 272.968 232.482 275.085 230.365C277.503 227.947 280.224 226.737 283.247 226.737ZM283.247 272.085H284.154C287.177 272.085 289.747 273.294 291.863 275.713C294.282 277.829 295.491 280.399 295.491 283.422V284.329C295.491 287.352 294.282 290.073 291.863 292.491C289.747 294.608 287.177 295.666 284.154 295.666H283.247C280.224 295.666 277.503 294.608 275.085 292.491C272.968 290.073 271.91 287.352 271.91 284.329V283.422C271.91 280.399 272.968 277.829 275.085 275.713C277.503 273.294 280.224 272.085 283.247 272.085ZM328.595 272.085H329.501C332.525 272.085 335.094 273.294 337.211 275.713C339.629 277.829 340.838 280.399 340.838 283.422V284.329C340.838 287.352 339.629 290.073 337.211 292.491C335.094 294.608 332.525 295.666 329.501 295.666H328.595C325.571 295.666 322.851 294.608 320.432 292.491C318.316 290.073 317.258 287.352 317.258 284.329V283.422C317.258 280.399 318.316 277.829 320.432 275.713C322.851 273.294 325.571 272.085 328.595 272.085ZM373.942 272.085H374.849C377.872 272.085 380.442 273.294 382.558 275.713C384.977 277.829 386.186 280.399 386.186 283.422V284.329C386.186 287.352 384.977 290.073 382.558 292.491C380.442 294.608 377.872 295.666 374.849 295.666H373.942C370.919 295.666 368.198 294.608 365.779 292.491C363.663 290.073 362.605 287.352 362.605 284.329V283.422C362.605 280.399 363.663 277.829 365.779 275.713C368.198 273.294 370.919 272.085 373.942 272.085ZM419.29 272.085H420.196C423.22 272.085 425.789 273.294 427.906 275.713C430.324 277.829 431.533 280.399 431.533 283.422V284.329C431.533 287.352 430.324 290.073 427.906 292.491C425.789 294.608 423.22 295.666 420.196 295.666H419.29C416.266 295.666 413.546 294.608 411.127 292.491C409.011 290.073 407.953 287.352 407.953 284.329V283.422C407.953 280.399 409.011 277.829 411.127 275.713C413.546 273.294 416.266 272.085 419.29 272.085ZM464.637 272.085H465.544C468.567 272.085 471.137 273.294 473.253 275.713C475.672 277.829 476.881 280.399 476.881 283.422V284.329C476.881 287.352 475.672 290.073 473.253 292.491C471.137 294.608 468.567 295.666 465.544 295.666H464.637C461.614 295.666 458.893 294.608 456.474 292.491C454.358 290.073 453.3 287.352 453.3 284.329V283.422C453.3 280.399 454.358 277.829 456.474 275.713C458.893 273.294 461.614 272.085 464.637 272.085Z" fill="#1A1A1A"/>
<path d="M56.6844 0H57.5913C60.6145 0 63.1842 1.20925 65.3004 3.62779C67.7189 5.74402 68.9282 8.31372 68.9282 11.3369V12.2438C68.9282 15.267 67.7189 17.9878 65.3004 20.4064C63.1842 22.5226 60.6145 23.5807 57.5913 23.5807H56.6844C53.6612 23.5807 50.9404 22.5226 48.5218 20.4064C46.4056 17.9878 45.3475 15.267 45.3475 12.2438V11.3369C45.3475 8.31372 46.4056 5.74402 48.5218 3.62779C50.9404 1.20925 53.6612 0 56.6844 0ZM102.032 0H102.939C105.962 0 108.532 1.20925 110.648 3.62779C113.066 5.74402 114.276 8.31372 114.276 11.3369V12.2438C114.276 15.267 113.066 17.9878 110.648 20.4064C108.532 22.5226 105.962 23.5807 102.939 23.5807H102.032C99.0087 23.5807 96.2879 22.5226 93.8693 20.4064C91.7531 17.9878 90.695 15.267 90.695 12.2438V11.3369C90.695 8.31372 91.7531 5.74402 93.8693 3.62779C96.2879 1.20925 99.0087 0 102.032 0ZM147.379 0H148.286C151.309 0 153.879 1.20925 155.995 3.62779C158.414 5.74402 159.623 8.31372 159.623 11.3369V12.2438C159.623 15.267 158.414 17.9878 155.995 20.4064C153.879 22.5226 151.309 23.5807 148.286 23.5807H147.379C144.356 23.5807 141.635 22.5226 139.217 20.4064C137.101 17.9878 136.042 15.267 136.042 12.2438V11.3369C136.042 8.31372 137.101 5.74402 139.217 3.62779C141.635 1.20925 144.356 0 147.379 0ZM11.3369 45.3475H12.2438C15.267 45.3475 17.8367 46.5568 19.9529 48.9753C22.3714 51.0915 23.5807 53.6612 23.5807 56.6844V57.5913C23.5807 60.6145 22.3714 63.3353 19.9529 65.7539C17.8367 67.8701 15.267 68.9282 12.2438 68.9282H11.3369C8.31371 68.9282 5.59286 67.8701 3.17432 65.7539C1.05811 63.3353 0 60.6145 0 57.5913V56.6844C0 53.6612 1.05811 51.0915 3.17432 48.9753C5.59286 46.5568 8.31371 45.3475 11.3369 45.3475ZM192.727 45.3475H193.634C196.657 45.3475 199.227 46.5568 201.343 48.9753C203.761 51.0915 204.971 53.6612 204.971 56.6844V57.5913C204.971 60.6145 203.761 63.3353 201.343 65.7539C199.227 67.8701 196.657 68.9282 193.634 68.9282H192.727C189.704 68.9282 186.983 67.8701 184.564 65.7539C182.448 63.3353 181.39 60.6145 181.39 57.5913V56.6844C181.39 53.6612 182.448 51.0915 184.564 48.9753C186.983 46.5568 189.704 45.3475 192.727 45.3475ZM11.3369 90.695H12.2438C15.267 90.695 17.8367 91.9043 19.9529 94.3228C22.3714 96.439 23.5807 99.0087 23.5807 102.032V102.939C23.5807 105.962 22.3714 108.683 19.9529 111.101C17.8367 113.218 15.267 114.276 12.2438 114.276H11.3369C8.31371 114.276 5.59286 113.218 3.17432 111.101C1.05811 108.683 0 105.962 0 102.939V102.032C0 99.0087 1.05811 96.439 3.17432 94.3228C5.59286 91.9043 8.31371 90.695 11.3369 90.695ZM56.6844 136.043H57.5913C60.6145 136.043 63.1842 137.252 65.3004 139.67C67.7189 141.787 68.9282 144.356 68.9282 147.379V148.286C68.9282 151.31 67.7189 154.03 65.3004 156.449C63.1842 158.565 60.6145 159.623 57.5913 159.623H56.6844C53.6612 159.623 50.9404 158.565 48.5218 156.449C46.4056 154.03 45.3475 151.31 45.3475 148.286V147.379C45.3475 144.356 46.4056 141.787 48.5218 139.67C50.9404 137.252 53.6612 136.043 56.6844 136.043ZM102.032 136.043H102.939C105.962 136.043 108.532 137.252 110.648 139.67C113.066 141.787 114.276 144.356 114.276 147.379V148.286C114.276 151.31 113.066 154.03 110.648 156.449C108.532 158.565 105.962 159.623 102.939 159.623H102.032C99.0087 159.623 96.2879 158.565 93.8693 156.449C91.7531 154.03 90.695 151.31 90.695 148.286V147.379C90.695 144.356 91.7531 141.787 93.8693 139.67C96.2879 137.252 99.0087 136.043 102.032 136.043ZM147.379 136.043H148.286C151.309 136.043 153.879 137.252 155.995 139.67C158.414 141.787 159.623 144.356 159.623 147.379V148.286C159.623 151.31 158.414 154.03 155.995 156.449C153.879 158.565 151.309 159.623 148.286 159.623H147.379C144.356 159.623 141.635 158.565 139.217 156.449C137.101 154.03 136.042 151.31 136.042 148.286V147.379C136.042 144.356 137.101 141.787 139.217 139.67C141.635 137.252 144.356 136.043 147.379 136.043ZM192.727 181.39H193.634C196.657 181.39 199.227 182.599 201.343 185.018C203.761 187.134 204.971 189.704 204.971 192.727V193.634C204.971 196.657 203.761 199.378 201.343 201.796C199.227 203.913 196.657 204.971 193.634 204.971H192.727C189.704 204.971 186.983 203.913 184.564 201.796C182.448 199.378 181.39 196.657 181.39 193.634V192.727C181.39 189.704 182.448 187.134 184.564 185.018C186.983 182.599 189.704 181.39 192.727 181.39ZM11.3369 226.737H12.2438C15.267 226.737 17.8367 227.947 19.9529 230.365C22.3714 232.482 23.5807 235.051 23.5807 238.074V238.981C23.5807 242.004 22.3714 244.725 19.9529 247.144C17.8367 249.26 15.267 250.318 12.2438 250.318H11.3369C8.31371 250.318 5.59286 249.26 3.17432 247.144C1.05811 244.725 0 242.004 0 238.981V238.074C0 235.051 1.05811 232.482 3.17432 230.365C5.59286 227.947 8.31371 226.737 11.3369 226.737ZM192.727 226.737H193.634C196.657 226.737 199.227 227.947 201.343 230.365C203.761 232.482 204.971 235.051 204.971 238.074V238.981C204.971 242.004 203.761 244.725 201.343 247.144C199.227 249.26 196.657 250.318 193.634 250.318H192.727C189.704 250.318 186.983 249.26 184.564 247.144C182.448 244.725 181.39 242.004 181.39 238.981V238.074C181.39 235.051 182.448 232.482 184.564 230.365C186.983 227.947 189.704 226.737 192.727 226.737ZM56.6844 272.085H57.5913C60.6145 272.085 63.1842 273.294 65.3004 275.713C67.7189 277.829 68.9282 280.399 68.9282 283.422V284.329C68.9282 287.352 67.7189 290.073 65.3004 292.491C63.1842 294.608 60.6145 295.666 57.5913 295.666H56.6844C53.6612 295.666 50.9404 294.608 48.5218 292.491C46.4056 290.073 45.3475 287.352 45.3475 284.329V283.422C45.3475 280.399 46.4056 277.829 48.5218 275.713C50.9404 273.294 53.6612 272.085 56.6844 272.085ZM102.032 272.085H102.939C105.962 272.085 108.532 273.294 110.648 275.713C113.066 277.829 114.276 280.399 114.276 283.422V284.329C114.276 287.352 113.066 290.073 110.648 292.491C108.532 294.608 105.962 295.666 102.939 295.666H102.032C99.0087 295.666 96.2879 294.608 93.8693 292.491C91.7531 290.073 90.695 287.352 90.695 284.329V283.422C90.695 280.399 91.7531 277.829 93.8693 275.713C96.2879 273.294 99.0087 272.085 102.032 272.085ZM147.379 272.085H148.286C151.309 272.085 153.879 273.294 155.995 275.713C158.414 277.829 159.623 280.399 159.623 283.422V284.329C159.623 287.352 158.414 290.073 155.995 292.491C153.879 294.608 151.309 295.666 148.286 295.666H147.379C144.356 295.666 141.635 294.608 139.217 292.491C137.101 290.073 136.042 287.352 136.042 284.329V283.422C136.042 280.399 137.101 277.829 139.217 275.713C141.635 273.294 144.356 272.085 147.379 272.085Z" fill="#1A1A1A"/>
</svg>
