<svg width="2972" height="2332" viewBox="0 0 2972 2332" fill="none" xmlns="http://www.w3.org/2000/svg">
<g opacity="0.06">
<path d="M1486.01 2119.35C1544.63 2119.35 1592.16 2166.79 1592.16 2225.31C1592.16 2283.82 1544.63 2331.26 1486.01 2331.26C1427.39 2331.26 1379.87 2283.82 1379.87 2225.31C1379.87 2166.79 1427.39 2119.35 1486.01 2119.35Z" fill="#1A1A1A"/>
<path d="M1061.58 2013.11C1120.2 2013.11 1167.73 2060.54 1167.73 2119.06C1167.73 2177.58 1120.2 2225.02 1061.58 2225.02C1002.95 2225.02 955.431 2177.58 955.431 2119.06C955.431 2060.54 1002.95 2013.11 1061.58 2013.11Z" fill="#1A1A1A"/>
<path d="M1910.7 2013.11C1969.32 2013.11 2016.85 2060.54 2016.85 2119.06C2016.85 2177.58 1969.32 2225.02 1910.7 2225.02C1852.08 2225.02 1804.55 2177.58 1804.55 2119.06C1804.55 2060.54 1852.08 2013.11 1910.7 2013.11Z" fill="#1A1A1A"/>
<path d="M743.024 1801.1C801.648 1801.1 849.173 1848.55 849.173 1907.06C849.173 1965.57 801.648 2013.02 743.024 2013.02C684.401 2013.02 636.878 1965.57 636.878 1907.06C636.878 1848.55 684.401 1801.1 743.024 1801.1Z" fill="#1A1A1A"/>
<path d="M2228.97 1801.1C2287.59 1801.1 2335.12 1848.55 2335.12 1907.06C2335.12 1965.57 2287.59 2013.02 2228.97 2013.02C2170.35 2013.02 2122.83 1965.57 2122.83 1907.06C2122.83 1848.55 2170.35 1801.1 2228.97 1801.1Z" fill="#1A1A1A"/>
<path d="M530.621 1483.23C589.244 1483.23 636.767 1530.66 636.768 1589.17C636.768 1647.7 589.244 1695.13 530.621 1695.13C471.998 1695.13 424.475 1647.7 424.475 1589.17C424.475 1530.66 471.998 1483.23 530.621 1483.23Z" fill="#1A1A1A"/>
<path d="M2441.39 1483.23C2500.01 1483.23 2547.54 1530.66 2547.54 1589.17C2547.54 1647.7 2500.01 1695.13 2441.39 1695.13C2382.77 1695.13 2335.24 1647.7 2335.24 1589.17C2335.24 1530.66 2382.77 1483.23 2441.39 1483.23Z" fill="#1A1A1A"/>
<path d="M106.147 1165.14C164.77 1165.14 212.294 1212.58 212.294 1271.1C212.294 1329.62 164.77 1377.05 106.147 1377.05C47.5241 1377.05 0 1329.62 0 1271.1C0.000198302 1212.58 47.5242 1165.14 106.147 1165.14Z" fill="#1A1A1A"/>
<path d="M424.421 1165.14C483.044 1165.14 530.567 1212.58 530.567 1271.1C530.567 1329.62 483.044 1377.05 424.421 1377.05C365.798 1377.05 318.272 1329.62 318.272 1271.1C318.273 1212.58 365.798 1165.14 424.421 1165.14Z" fill="#1A1A1A"/>
<path d="M743.024 1165.14C801.648 1165.14 849.173 1212.58 849.173 1271.1C849.173 1329.62 801.648 1377.05 743.024 1377.05C684.401 1377.05 636.878 1329.62 636.878 1271.1C636.878 1212.58 684.401 1165.14 743.024 1165.14Z" fill="#1A1A1A"/>
<path d="M2229.09 1165.14C2287.71 1165.14 2335.24 1212.58 2335.24 1271.1C2335.24 1329.62 2287.71 1377.05 2229.09 1377.05C2170.47 1377.05 2122.94 1329.62 2122.94 1271.1C2122.94 1212.58 2170.47 1165.14 2229.09 1165.14Z" fill="#1A1A1A"/>
<path d="M2547.47 1165.14C2606.09 1165.14 2653.62 1212.58 2653.62 1271.1C2653.62 1329.62 2606.09 1377.05 2547.47 1377.05C2488.85 1377.05 2441.32 1329.62 2441.32 1271.1C2441.32 1212.58 2488.85 1165.14 2547.47 1165.14Z" fill="#1A1A1A"/>
<path d="M2865.85 1165.14C2924.47 1165.14 2972 1212.58 2972 1271.1C2972 1329.62 2924.47 1377.05 2865.85 1377.05C2807.23 1377.05 2759.7 1329.62 2759.7 1271.1C2759.7 1212.58 2807.23 1165.14 2865.85 1165.14Z" fill="#1A1A1A"/>
<path d="M1061.44 424.062C1120.07 424.062 1167.59 471.5 1167.59 530.017C1167.59 588.533 1120.07 635.971 1061.44 635.971C1002.82 635.971 955.297 588.533 955.297 530.017C955.297 471.5 1002.82 424.062 1061.44 424.062Z" fill="#1A1A1A"/>
<path d="M1910.7 424.062C1969.32 424.062 2016.85 471.5 2016.85 530.017C2016.85 588.533 1969.32 635.971 1910.7 635.971C1852.08 635.971 1804.55 588.533 1804.55 530.017C1804.55 471.5 1852.08 424.062 1910.7 424.062Z" fill="#1A1A1A"/>
<path d="M849.12 212.004C907.743 212.004 955.269 259.442 955.269 317.959C955.268 376.476 907.743 423.915 849.12 423.915C790.497 423.915 742.974 376.476 742.974 317.959C742.974 259.442 790.497 212.004 849.12 212.004Z" fill="#1A1A1A"/>
<path d="M1061.44 212.004C1120.07 212.004 1167.59 259.442 1167.59 317.959C1167.59 376.476 1120.07 423.915 1061.44 423.915C1002.82 423.915 955.297 376.476 955.297 317.959C955.297 259.442 1002.82 212.004 1061.44 212.004Z" fill="#1A1A1A"/>
<path d="M1273.86 212.004C1332.48 212.004 1380.01 259.442 1380.01 317.959C1380.01 376.476 1332.48 423.915 1273.86 423.915C1215.24 423.915 1167.71 376.476 1167.71 317.959C1167.71 259.442 1215.24 212.004 1273.86 212.004Z" fill="#1A1A1A"/>
<path d="M1698.07 212.004C1756.69 212.004 1804.22 259.442 1804.22 317.959C1804.22 376.476 1756.69 423.915 1698.07 423.915C1639.43 423.915 1591.92 376.476 1591.92 317.959C1591.92 259.442 1639.43 212.004 1698.07 212.004Z" fill="#1A1A1A"/>
<path d="M2122.77 212.004C2181.39 212.004 2228.92 259.442 2228.92 317.959C2228.92 376.476 2181.39 423.915 2122.77 423.915C2065.78 423.915 2019.27 379.076 2016.73 322.811C2014.19 379.076 1967.69 423.915 1910.7 423.915C1852.08 423.915 1804.55 376.476 1804.55 317.959C1804.55 259.442 1852.08 212.004 1910.7 212.004C1967.69 212.004 2014.19 256.842 2016.73 313.106C2019.28 256.842 2065.78 212.004 2122.77 212.004Z" fill="#1A1A1A"/>
<path d="M1061.44 0C1120.07 0.000197559 1167.59 47.4379 1167.59 105.955C1167.59 164.472 1120.07 211.91 1061.44 211.91C1002.82 211.91 955.297 164.473 955.297 105.955C955.297 47.4378 1002.82 0 1061.44 0Z" fill="#1A1A1A"/>
<path d="M1910.7 0C1969.32 0.000131709 2016.85 47.4378 2016.85 105.955C2016.85 164.472 1969.32 211.91 1910.7 211.91C1852.08 211.91 1804.55 164.473 1804.55 105.955C1804.55 47.4378 1852.08 0 1910.7 0Z" fill="#1A1A1A"/>
</g>
</svg>
